<svg width="20" height="21" viewBox="0 0 20 21" fill="none" xmlns="http://www.w3.org/2000/svg">
<g clip-path="url(#clip0_1_937)">
<g clip-path="url(#clip1_1_937)">
<path d="M10 20.6396C15.5228 20.6396 20 16.1625 20 10.6396C20 5.1168 15.5228 0.639648 10 0.639648C4.47715 0.639648 0 5.1168 0 10.6396C0 16.1625 4.47715 20.6396 10 20.6396Z" fill="#C3A634"/>
<path fill-rule="evenodd" clip-rule="evenodd" d="M8.28 9.7709H10.9763V11.1996H8.28V14.2109H9.98063C10.6537 14.2109 11.2044 14.1203 11.6331 13.9378C12.0619 13.7559 12.3981 13.504 12.6425 13.1815C12.8924 12.8462 13.0626 12.4582 13.14 12.0471C13.2303 11.5835 13.2743 11.112 13.2712 10.6396C13.2743 10.1673 13.2303 9.6958 13.14 9.23215C13.0627 8.82108 12.8925 8.4331 12.6425 8.09777C12.3981 7.77527 12.0613 7.5234 11.6331 7.34152C11.2044 7.15902 10.6537 7.0684 9.98063 7.0684H8.28V9.77152V9.7709ZM6.55125 11.1996H5.625V9.77152H6.55125V5.63965H10.6444C11.4006 5.63965 12.055 5.7709 12.6081 6.03152C13.1613 6.2934 13.6125 6.65027 13.9631 7.1034C14.3131 7.5559 14.5737 8.0859 14.7444 8.69277C14.915 9.29965 15 9.94902 15 10.6396C15.0043 11.2973 14.9181 11.9524 14.7437 12.5865C14.5738 13.1928 14.3131 13.7234 13.9625 14.1759C13.6125 14.629 13.1613 14.9859 12.6081 15.2478C12.055 15.509 11.4 15.6396 10.6444 15.6396H6.55125V11.1996Z" fill="white"/>
</g>
</g>
<defs>
<clipPath id="clip0_1_937">
<rect width="20" height="20" fill="white" transform="translate(0 0.639648)"/>
</clipPath>
<clipPath id="clip1_1_937">
<rect width="20" height="20" fill="white" transform="translate(0 0.639648)"/>
</clipPath>
</defs>
</svg>
