<svg width="81" height="80" viewBox="0 0 81 80" fill="none" xmlns="http://www.w3.org/2000/svg">
<rect x="0.5" width="80" height="80" rx="40" fill="white"/>
<path d="M33.0877 48.3301C32.4087 47.6512 32.7627 47.8426 31.1252 47.4043C30.3822 47.2051 29.7291 46.8223 29.1384 46.3637L25.5939 55.0543C25.2509 55.8957 25.8916 56.8098 26.7994 56.7754L30.9158 56.6184L33.747 59.609C34.372 60.2684 35.4689 60.0629 35.8119 59.2215L39.8783 49.2512C39.0314 49.7231 38.0916 49.9997 37.1197 49.9997C35.5962 49.9997 34.165 49.4067 33.0877 48.3301ZM55.4064 55.0543L51.8619 46.3637C51.2712 46.8231 50.6181 47.2051 49.8752 47.4043C48.2291 47.845 48.59 47.6528 47.9127 48.3301C46.8353 49.4067 45.4033 49.9997 43.8798 49.9997C42.908 49.9997 41.9681 49.7223 41.1212 49.2512L45.1877 59.2215C45.5306 60.0629 46.6283 60.2684 47.2525 59.609L50.0845 56.6184L54.2009 56.7754C55.1087 56.8098 55.7494 55.895 55.4064 55.0543ZM46.047 46.5622C47.2408 45.3473 47.3775 45.452 49.0775 44.9887C50.1627 44.6926 51.0111 43.8293 51.3017 42.7247C51.8861 40.5059 51.7345 40.7739 53.3291 39.1504C54.1236 38.3418 54.4337 37.1629 54.1431 36.0582C53.5595 33.8411 53.5587 34.1504 54.1431 31.9309C54.4337 30.8262 54.1236 29.6473 53.3291 28.8387C51.7345 27.2153 51.8861 27.4825 51.3017 25.2645C51.0111 24.1598 50.1627 23.2965 49.0775 23.0004C46.8994 22.4059 47.1619 22.5614 45.5658 20.9372C44.7712 20.1286 43.6127 19.8122 42.5275 20.1082C40.3502 20.702 40.6541 20.7028 38.4728 20.1082C37.3877 19.8122 36.2291 20.1278 35.4345 20.9372C33.84 22.5606 34.1025 22.4059 31.9236 23.0004C30.8384 23.2965 29.99 24.1598 29.6994 25.2645C29.1158 27.4825 29.2666 27.2153 27.672 28.8387C26.8775 29.6473 26.5666 30.8262 26.858 31.9309C27.4416 34.1465 27.4423 33.8372 26.858 36.0575C26.5673 37.1622 26.8775 38.3411 27.672 39.1504C29.2666 40.7739 29.115 40.5059 29.6994 42.7247C29.99 43.8293 30.8384 44.6926 31.9236 44.9887C33.672 45.4653 33.8025 45.3903 34.9533 46.5622C35.9869 47.6145 37.597 47.8028 38.8392 47.0168C39.3359 46.7015 39.9122 46.534 40.5005 46.534C41.0889 46.534 41.6651 46.7015 42.1619 47.0168C43.4033 47.8028 45.0134 47.6145 46.047 46.5622ZM33.1298 33.7465C33.1298 29.6036 36.4298 26.245 40.5002 26.245C44.5705 26.245 47.8705 29.6036 47.8705 33.7465C47.8705 37.8895 44.5705 41.2481 40.5002 41.2481C36.4298 41.2481 33.1298 37.8895 33.1298 33.7465Z" fill="#14261C"/>
</svg>
