<svg width="20" height="21" viewBox="0 0 20 21" fill="none" xmlns="http://www.w3.org/2000/svg">
<g clip-path="url(#clip0_1_777)">
<path d="M10 20.5C15.5228 20.5 20 16.0228 20 10.5C20 4.97715 15.5228 0.5 10 0.5C4.47715 0.5 0 4.97715 0 10.5C0 16.0228 4.47715 20.5 10 20.5Z" fill="#F7931A"/>
<path d="M14.4927 9.2625C14.6889 7.9525 13.6908 7.24813 12.327 6.77813L12.7695 5.00312L11.6895 4.73438L11.2583 6.4625C10.9745 6.39125 10.6833 6.325 10.3927 6.25875L10.827 4.51938L9.74703 4.25L9.30453 6.02437C9.06953 5.97062 8.83828 5.91813 8.61453 5.86188L8.61578 5.85625L7.12578 5.48438L6.83828 6.63812C6.83828 6.63812 7.64016 6.82188 7.62328 6.83313C8.06078 6.9425 8.13953 7.23187 8.12641 7.46187L7.62266 9.48375C7.65266 9.49125 7.69141 9.5025 7.73516 9.51937L7.62078 9.49125L6.91453 12.3237C6.86078 12.4562 6.72516 12.6556 6.41891 12.58C6.43016 12.5956 5.63391 12.3844 5.63391 12.3844L5.09766 13.6206L6.50391 13.9713C6.76516 14.0369 7.02141 14.1056 7.27328 14.17L6.82641 15.965L7.90578 16.2337L8.34828 14.4587C8.64328 14.5381 8.92953 14.6119 9.20953 14.6819L8.76828 16.4494L9.84828 16.7181L10.2952 14.9269C12.1377 15.2756 13.5227 15.135 14.1058 13.4688C14.5758 12.1275 14.0827 11.3531 13.1133 10.8488C13.8195 10.6863 14.3508 10.2219 14.4927 9.2625ZM12.0239 12.7238C11.6908 14.0656 9.43141 13.34 8.69891 13.1581L9.29266 10.78C10.0252 10.9631 12.3733 11.325 12.0239 12.7238ZM12.3583 9.24312C12.0539 10.4638 10.1739 9.84313 9.56453 9.69125L10.102 7.535C10.7114 7.68687 12.6758 7.97 12.3583 9.24312Z" fill="white"/>
</g>
<defs>
<clipPath id="clip0_1_777">
<rect width="20" height="20" fill="white" transform="translate(0 0.5)"/>
</clipPath>
</defs>
</svg>
