<svg width="275" height="106" viewBox="0 0 275 106" fill="none" xmlns="http://www.w3.org/2000/svg">
<rect width="275" height="106" rx="53" fill="#373536"/>
<path d="M220.871 52.0519H213.904C209.41 52.0519 206.938 55.6074 206.938 61.7704V83.8148H193.455V52.0519H187.837C183.343 52.0519 180.871 55.6074 180.871 61.7704V83.8148H167.388V40.2H180.871V46.837C183.118 41.6222 186.039 40.2 190.534 40.2H206.938V46.837C209.185 41.6222 212.107 40.2 216.601 40.2H221.095L220.871 52.0519ZM164.242 65.3259H136.376C137.051 70.3037 139.972 72.9111 144.691 72.9111C148.287 72.9111 150.758 71.2519 151.657 68.6444L163.567 72.2C160.646 79.7852 153.455 84.2889 144.691 84.2889C130.084 84.2889 123.343 72.2 123.343 61.7704C123.343 51.5778 129.185 39.4889 143.792 39.4889C159.298 39.4889 164.466 51.8148 164.466 61.0593C164.466 63.1926 164.466 64.3778 164.242 65.3259ZM151.433 57.0296C151.208 53.237 148.511 49.9185 144.017 49.9185C139.747 49.9185 137.275 51.8148 136.376 57.0296H151.433ZM99.9719 83.8148H111.657L126.489 40.437H113.006L105.815 65.8L98.6236 40.2H85.1404L99.9719 83.8148ZM45.1404 83.8148H58.3989V52.0519H71.2079V83.8148H84.4663V40.2H58.3989V37.5926C58.3989 34.7481 60.4213 32.8519 63.3427 32.8519H71.2079V21H61.3202C51.6573 21 45.1404 27.4 45.1404 36.6444V40.2H37.5V52.0519H45.1404V83.8148Z" fill="white"/>
<path d="M229.185 85C233.68 85 237.5 80.9704 237.5 76.2296C237.5 71.4889 233.68 67.4593 229.185 67.4593C224.691 67.4593 220.871 71.4889 220.871 76.2296C220.871 80.9704 224.691 85 229.185 85Z" fill="#1DBF73"/>
</svg>
