<svg width="88" height="88" viewBox="0 0 88 88" fill="none" xmlns="http://www.w3.org/2000/svg">
<g filter="url(#filter0_d_1_1006)">
<rect x="4" width="80" height="80" rx="40" fill="white" shape-rendering="crispEdges"/>
<path d="M44 20.625C33.2995 20.625 24.625 29.2995 24.625 40C24.625 50.7005 33.2995 59.375 44 59.375C54.7005 59.375 63.375 50.7005 63.375 40C63.375 29.2995 54.7005 20.625 44 20.625ZM57.57 29.9655L52.617 34.9186C51.7586 33.4687 50.5334 32.2427 49.0814 31.383L54.0345 26.43C55.3802 27.4285 56.5715 28.6198 57.57 29.9655ZM44 47.5C39.8579 47.5 36.5 44.1421 36.5 40C36.5 35.8579 39.8579 32.5 44 32.5C48.1421 32.5 51.5 35.8579 51.5 40C51.5 44.1421 48.1421 47.5 44 47.5ZM33.9655 26.43L38.9186 31.383C37.4687 32.2414 36.2427 33.4666 35.383 34.9186L30.43 29.9655C31.4285 28.6198 32.6198 27.4285 33.9655 26.43ZM30.43 50.0345L35.383 45.0814C36.2414 46.5313 37.4666 47.7573 38.9186 48.617L33.9655 53.57C32.6198 52.5715 31.4285 51.3802 30.43 50.0345ZM54.0345 53.57L49.0814 48.617C50.5313 47.7586 51.7573 46.5334 52.617 45.0814L57.57 50.0345C56.5715 51.3802 55.3802 52.5715 54.0345 53.57Z" fill="#14261C"/>
</g>
<defs>
<filter id="filter0_d_1_1006" x="0" y="0" width="88" height="88" filterUnits="userSpaceOnUse" color-interpolation-filters="sRGB">
<feFlood flood-opacity="0" result="BackgroundImageFix"/>
<feColorMatrix in="SourceAlpha" type="matrix" values="0 0 0 0 0 0 0 0 0 0 0 0 0 0 0 0 0 0 127 0" result="hardAlpha"/>
<feOffset dy="4"/>
<feGaussianBlur stdDeviation="2"/>
<feComposite in2="hardAlpha" operator="out"/>
<feColorMatrix type="matrix" values="0 0 0 0 0 0 0 0 0 0 0 0 0 0 0 0 0 0 0.25 0"/>
<feBlend mode="normal" in2="BackgroundImageFix" result="effect1_dropShadow_1_1006"/>
<feBlend mode="normal" in="SourceGraphic" in2="effect1_dropShadow_1_1006" result="shape"/>
</filter>
</defs>
</svg>
