<svg width="80" height="80" viewBox="0 0 80 80" fill="none" xmlns="http://www.w3.org/2000/svg">
<rect width="80" height="80" rx="40" fill="white"/>
<path d="M48.9625 30.4125C46.5202 28.1256 43.3506 26.872 39.9881 26.875C33.9367 26.8803 28.7125 31.0295 27.2701 36.7852C27.1651 37.2041 26.7918 37.5 26.3598 37.5H21.883C21.2973 37.5 20.8523 36.9682 20.9606 36.3925C22.651 27.4159 30.5323 20.625 40 20.625C45.1912 20.625 49.9055 22.6669 53.384 25.991L56.1742 23.2008C57.3554 22.0196 59.375 22.8562 59.375 24.5266V35C59.375 36.0355 58.5355 36.875 57.5 36.875H47.0266C45.3562 36.875 44.5196 34.8554 45.7008 33.6741L48.9625 30.4125ZM22.5 43.125H32.9734C34.6438 43.125 35.4804 45.1446 34.2992 46.3259L31.0375 49.5876C33.4798 51.8745 36.6496 53.1281 40.0122 53.1251C46.0605 53.1196 51.2868 48.9732 52.7299 43.215C52.8349 42.796 53.2082 42.5002 53.6402 42.5002H58.117C58.7028 42.5002 59.1478 43.032 59.0395 43.6077C57.349 52.5841 49.4677 59.375 40 59.375C34.8088 59.375 30.0945 57.3331 26.616 54.009L23.8258 56.7992C22.6446 57.9804 20.625 57.1438 20.625 55.4734V45C20.625 43.9645 21.4645 43.125 22.5 43.125Z" fill="#14261C"/>
</svg>
