<svg width="20" height="21" viewBox="0 0 20 21" fill="none" xmlns="http://www.w3.org/2000/svg">
<g clip-path="url(#clip0_1_821)">
<g clip-path="url(#clip1_1_821)">
<g clip-path="url(#clip2_1_821)">
<path d="M10 20.0596C15.5228 20.0596 20 15.5824 20 10.0596C20 4.53672 15.5228 0.0595703 10 0.0595703C4.47715 0.0595703 0 4.53672 0 10.0596C0 15.5824 4.47715 20.0596 10 20.0596Z" fill="#26A17B"/>
<path fill-rule="evenodd" clip-rule="evenodd" d="M11.2013 10.9238V10.9225C11.1325 10.9275 10.7781 10.9488 9.9875 10.9488C9.35625 10.9488 8.91187 10.93 8.75562 10.9225V10.9244C6.32562 10.8175 4.51187 10.3944 4.51187 9.88816C4.51187 9.38254 6.32562 8.95941 8.75562 8.85066V10.5032C8.91437 10.5144 9.36937 10.5413 9.99812 10.5413C10.7525 10.5413 11.1306 10.51 11.2013 10.5038V8.85191C13.6263 8.96004 15.4356 9.38316 15.4356 9.88816C15.4356 10.3944 13.6263 10.8163 11.2013 10.9238ZM11.2013 8.68004V7.20129H14.585V4.94629H5.37188V7.20129H8.75562V8.67941C6.00562 8.80566 3.9375 9.35066 3.9375 10.0032C3.9375 10.6557 6.00562 11.2 8.75562 11.3269V16.0657H11.2013V11.3257C13.9469 11.1994 16.01 10.655 16.01 10.0032C16.01 9.35129 13.9469 8.80691 11.2013 8.68004Z" fill="white"/>
</g>
</g>
</g>
<defs>
<clipPath id="clip0_1_821">
<rect width="20" height="20" fill="white" transform="translate(0 0.0595703)"/>
</clipPath>
<clipPath id="clip1_1_821">
<rect width="20" height="20" fill="white" transform="translate(0 0.0595703)"/>
</clipPath>
<clipPath id="clip2_1_821">
<rect width="20" height="20" fill="white" transform="translate(0 0.0595703)"/>
</clipPath>
</defs>
</svg>
