<svg width="20" height="21" viewBox="0 0 20 21" fill="none" xmlns="http://www.w3.org/2000/svg">
<g clip-path="url(#clip0_1_957)">
<g clip-path="url(#clip1_1_957)">
<path d="M10 20.4199C15.5228 20.4199 20 15.9428 20 10.4199C20 4.89707 15.5228 0.419922 10 0.419922C4.47715 0.419922 0 4.89707 0 10.4199C0 15.9428 4.47715 20.4199 10 20.4199Z" fill="#0088CC"/>
<path fill-rule="evenodd" clip-rule="evenodd" d="M7.21395 7.02734H12.8211C13.0354 7.02734 13.2139 7.06306 13.4282 7.1702C13.6782 7.27734 13.8211 7.45592 13.8925 7.59877C13.8925 7.59877 13.8925 7.63449 13.9282 7.63449C14.0354 7.81306 14.1068 8.02734 14.1068 8.27734C14.1068 8.49163 14.0711 8.70591 13.9282 8.9202L10.3925 14.9916C10.3211 15.1345 10.1782 15.2059 9.99966 15.2059C9.85681 15.2059 9.71395 15.1345 9.60681 14.9916L6.14252 8.9202C6.07109 8.77734 5.92824 8.59877 5.92824 8.31306C5.89252 8.06306 5.96395 7.84877 6.07109 7.63449C6.17824 7.4202 6.35681 7.24163 6.60681 7.1702C6.82109 7.02734 7.07109 7.02734 7.21395 7.02734ZM9.57109 7.88449H7.21395C7.07109 7.88449 6.99966 7.88449 6.96395 7.9202C6.89252 7.95592 6.85681 7.99163 6.82109 8.06306C6.78538 8.09877 6.78538 8.1702 6.78538 8.24163C6.78538 8.27734 6.82109 8.31306 6.89252 8.45592L9.57109 13.0988V7.88449ZM10.4282 7.88449V13.1345L13.1425 8.45592C13.1782 8.38449 13.1782 8.31306 13.1782 8.24163C13.1782 8.1702 13.1782 8.09877 13.1425 8.06306C13.1068 8.02734 13.1068 7.99163 13.0711 7.99163L13.0354 7.95592C12.9639 7.9202 12.8925 7.9202 12.7854 7.9202H10.4282V7.88449Z" fill="white"/>
</g>
</g>
<defs>
<clipPath id="clip0_1_957">
<rect width="20" height="20" fill="white" transform="translate(0 0.419922)"/>
</clipPath>
<clipPath id="clip1_1_957">
<rect width="20" height="20" fill="white" transform="translate(0 0.419922)"/>
</clipPath>
</defs>
</svg>
