<svg width="276" height="106" viewBox="0 0 276 106" fill="none" xmlns="http://www.w3.org/2000/svg">
<rect width="276" height="106" rx="53" fill="#373536"/>
<path d="M92.8297 64.5657C90.7604 64.4327 88.7489 63.728 86.9644 62.5109C85.1799 61.2938 83.6746 59.5998 82.575 57.5714C83.9014 45.3657 87.7617 41.5714 92.8693 41.5714C97.9769 41.5714 101.857 46.1429 101.857 53C101.857 59.8571 97.8977 64.4286 92.8693 64.4286M92.8693 33.9371C89.2648 33.7685 85.7237 35.0679 82.8649 37.6082C80.0061 40.1485 78.0115 43.7681 77.2298 47.8343C75.5352 43.735 74.2533 39.425 73.409 34.9886H60.7984V53.0457C60.7984 59.6057 58.2248 64.4743 53.1767 64.4743C48.1285 64.4743 45.2579 59.6286 45.2579 53.0457V34.9886H38.0123V53.0457C37.8478 58.0496 39.3416 62.9376 42.1894 66.7143C43.5794 68.4617 45.2774 69.8452 47.1692 70.7717C49.0609 71.6982 51.1026 72.1463 53.1569 72.0857C61.8873 72.0857 68.0045 64.3371 68.0045 53.2514V41.0457C69.4872 47.6137 71.9382 53.838 75.2501 59.4457L71.37 85H78.7344L81.2882 66.8971C82.1336 67.7375 83.0337 68.5017 83.9805 69.1829C86.4407 70.9768 89.2686 71.9863 92.1764 72.1086H92.8495C95.0126 72.1345 97.1579 71.6549 99.1563 70.6985C101.155 69.7422 102.965 68.3288 104.478 66.5436C105.991 64.7584 107.175 62.6382 107.96 60.3107C108.744 57.9831 109.113 55.4963 109.043 53C109.094 50.5128 108.711 48.0393 107.917 45.7265C107.123 43.4137 105.934 41.3088 104.422 39.5369C102.909 37.765 101.104 36.3622 99.1123 35.412C97.1209 34.4618 94.9844 33.9836 92.8297 34.0057" fill="#14A800"/>
<path d="M197.001 38.9657V35.1257H189.874V70.8514H197.1V56.8629C197.1 48.2457 197.773 42.0514 207.79 42.8514V34.7143C203.118 34.3029 199.475 35.4229 197.001 38.9886" fill="#14A800"/>
<path d="M146.935 35.1029L141.708 60.1086L136.125 35.1029H126.94L121.357 60.1086L116.131 35.1029H108.826L116.843 70.8743H125.514L131.533 45.48L137.491 70.8743H146.162L154.635 35.1029H146.935Z" fill="#14A800"/>
<path d="M170.513 64.5886C165.385 64.5886 161.545 59.9029 161.545 53.16C161.545 46.4171 165.504 41.7314 170.513 41.7314C175.521 41.7314 179.579 46.1429 179.579 53C179.579 59.8571 175.62 64.4286 170.592 64.4286M170.592 33.9143C168.425 33.8791 166.275 34.3512 164.271 35.302C162.267 36.2528 160.451 37.6626 158.932 39.4463C157.413 41.23 156.223 43.3506 155.433 45.6801C154.644 48.0096 154.271 50.4997 154.339 53C154.263 55.5088 154.625 58.0096 155.404 60.3533C156.183 62.697 157.363 64.8355 158.873 66.6414C160.384 68.4472 162.193 69.8834 164.195 70.8643C166.196 71.8452 168.348 72.3508 170.522 72.3508C172.697 72.3508 174.849 71.8452 176.85 70.8643C178.852 69.8834 180.661 68.4472 182.172 66.6414C183.682 64.8355 184.862 62.697 185.641 60.3533C186.42 58.0096 186.782 55.5088 186.706 53C186.76 50.5139 186.379 48.0409 185.587 45.7282C184.796 43.4155 183.609 41.3104 182.098 39.5381C180.587 37.7659 178.783 36.3628 176.792 35.4123C174.802 34.4618 172.666 33.9835 170.513 34.0057" fill="#14A800"/>
<path d="M218.124 53.2971H219.787L229.863 70.8743H238L226.419 51.3771C229.204 50.0511 231.585 47.797 233.256 44.9026C234.927 42.0081 235.814 38.6044 235.803 35.1257H228.616C228.616 42.8286 223.35 45.7543 218.124 45.7543V21H210.898V70.8743H218.104L218.124 53.2971Z" fill="#14A800"/>
</svg>
