<svg width="20" height="21" viewBox="0 0 20 21" fill="none" xmlns="http://www.w3.org/2000/svg">
<g clip-path="url(#clip0_1_896)">
<g clip-path="url(#clip1_1_896)">
<g clip-path="url(#clip2_1_896)">
<path d="M10 20.0801C15.5228 20.0801 20 15.6029 20 10.0801C20 4.55723 15.5228 0.0800781 10 0.0800781C4.47715 0.0800781 0 4.55723 0 10.0801C0 15.6029 4.47715 20.0801 10 20.0801Z" fill="#2775C9"/>
<path d="M9.84375 17.2676C5.7875 17.2676 2.5 13.9801 2.5 9.92383C2.5 5.86758 5.7875 2.58008 9.84375 2.58008C13.9 2.58008 17.1875 5.86758 17.1875 9.92383C17.1875 11.8715 16.4138 13.7394 15.0366 15.1166C13.6593 16.4939 11.7914 17.2676 9.84375 17.2676ZM9.40625 7.19883C9.00444 7.21875 8.62459 7.38816 8.34128 7.67378C8.05797 7.95941 7.89166 8.34062 7.875 8.74258C7.875 9.49883 8.3375 9.99258 9.31875 10.1988L10.0063 10.3613C10.675 10.5176 10.95 10.7426 10.95 11.1238C10.95 11.5051 10.4688 11.8801 9.84375 11.8801C9.62175 11.9004 9.3985 11.8579 9.19955 11.7573C9.0006 11.6567 8.83398 11.5022 8.71875 11.3113C8.68461 11.2389 8.63071 11.1776 8.56326 11.1345C8.49581 11.0914 8.41755 11.0682 8.3375 11.0676H7.96875C7.94039 11.0728 7.91335 11.0836 7.88919 11.0994C7.86503 11.1151 7.84421 11.1355 7.82795 11.1593C7.81168 11.1831 7.80029 11.2099 7.79442 11.2381C7.78855 11.2664 7.78832 11.2955 7.79375 11.3238C7.88357 11.6904 8.09242 12.0169 8.38759 12.2521C8.68276 12.4874 9.0476 12.6181 9.425 12.6238V13.1488C9.425 13.2657 9.47142 13.3778 9.55406 13.4604C9.63669 13.543 9.74876 13.5895 9.86562 13.5895C9.98249 13.5895 10.0946 13.543 10.1772 13.4604C10.2598 13.3778 10.3062 13.2657 10.3062 13.1488V12.6176C10.733 12.6127 11.141 12.4415 11.4433 12.1403C11.7457 11.8391 11.9185 11.4318 11.925 11.0051C11.925 10.2113 11.4688 9.75508 10.3875 9.52383L9.7625 9.38633C9.1375 9.23008 8.84375 9.02383 8.84375 8.67383C8.84375 8.32383 9.21875 7.93633 9.84375 7.93633C10.0406 7.91577 10.2392 7.95263 10.4155 8.04247C10.5918 8.1323 10.7384 8.27127 10.8375 8.44258C10.8777 8.52813 10.9413 8.60055 11.0209 8.65143C11.1006 8.70232 11.193 8.72959 11.2875 8.73008H11.5813C11.648 8.71374 11.7057 8.67185 11.742 8.61342C11.7782 8.55498 11.7901 8.48466 11.775 8.41758C11.6903 8.0791 11.5009 7.77601 11.2338 7.55154C10.9667 7.32707 10.6355 7.1927 10.2875 7.16758V6.73633C10.2875 6.61947 10.2411 6.50739 10.1584 6.42476C10.0758 6.34213 9.96374 6.2957 9.84688 6.2957C9.73001 6.2957 9.61794 6.34213 9.53531 6.42476C9.45267 6.50739 9.40625 6.61947 9.40625 6.73633V7.19883ZM4.3375 9.92383C4.33822 11.0751 4.70061 12.1971 5.37349 13.1313C6.04637 14.0655 6.99574 14.7647 8.0875 15.1301H8.175C8.24959 15.1301 8.32113 15.1004 8.37387 15.0477C8.42662 14.995 8.45625 14.9234 8.45625 14.8488V14.7176C8.45646 14.6012 8.42212 14.4875 8.35758 14.3906C8.29305 14.2938 8.20122 14.2184 8.09375 14.1738C7.2435 13.8306 6.51521 13.2412 6.00237 12.4811C5.48952 11.7211 5.21551 10.8251 5.21551 9.9082C5.21551 8.99131 5.48952 8.09533 6.00237 7.33527C6.51521 6.57522 7.2435 5.98577 8.09375 5.64258C8.20073 5.59912 8.29234 5.52479 8.3569 5.42906C8.42146 5.33333 8.45605 5.22054 8.45625 5.10508V4.96133C8.45665 4.91912 8.44688 4.87744 8.42774 4.83982C8.40861 4.80219 8.38068 4.76974 8.34634 4.74521C8.31199 4.72067 8.27223 4.70478 8.23044 4.69889C8.18864 4.69299 8.14604 4.69726 8.10625 4.71133C7.00998 5.07389 6.05581 5.77264 5.37927 6.70836C4.70273 7.64407 4.33822 8.76916 4.3375 9.92383ZM15.35 9.92383C15.348 8.7736 14.985 7.65303 14.3122 6.72009C13.6394 5.78715 12.6907 5.08892 11.6 4.72383H11.5063C11.4283 4.72383 11.3536 4.75478 11.2985 4.80987C11.2434 4.86495 11.2125 4.93967 11.2125 5.01758V5.11133C11.215 5.23187 11.2524 5.34911 11.32 5.44892C11.3876 5.54872 11.4827 5.62683 11.5938 5.67383C12.4421 6.01802 13.1684 6.60751 13.6797 7.36685C14.1911 8.1262 14.4643 9.02085 14.4643 9.93633C14.4643 10.8518 14.1911 11.7465 13.6797 12.5058C13.1684 13.2651 12.4421 13.8546 11.5938 14.1988C11.4848 14.2463 11.3917 14.3239 11.3253 14.4224C11.2589 14.5209 11.2219 14.6363 11.2188 14.7551V14.8613C11.2193 14.9077 11.2308 14.9532 11.2523 14.9943C11.2738 15.0353 11.3047 15.0707 11.3425 15.0975C11.3803 15.1243 11.4239 15.1418 11.4697 15.1486C11.5155 15.1553 11.5623 15.1511 11.6062 15.1363C12.6979 14.7695 13.6466 14.0689 14.3184 13.1336C14.9902 12.1982 15.351 11.0754 15.35 9.92383Z" fill="white"/>
</g>
</g>
</g>
<defs>
<clipPath id="clip0_1_896">
<rect width="20" height="20" fill="white" transform="translate(0 0.0800781)"/>
</clipPath>
<clipPath id="clip1_1_896">
<rect width="20" height="20" fill="white" transform="translate(0 0.0800781)"/>
</clipPath>
<clipPath id="clip2_1_896">
<rect width="20" height="20" fill="white" transform="translate(0 0.0800781)"/>
</clipPath>
</defs>
</svg>
