<svg width="20" height="21" viewBox="0 0 20 21" fill="none" xmlns="http://www.w3.org/2000/svg">
<g clip-path="url(#clip0_1_916)">
<g clip-path="url(#clip1_1_916)">
<g clip-path="url(#clip2_1_916)">
<path d="M10 20.8604C15.5228 20.8604 20 16.3832 20 10.8604C20 5.3375 15.5228 0.860352 10 0.860352C4.47715 0.860352 0 5.3375 0 10.8604C0 16.3832 4.47715 20.8604 10 20.8604Z" fill="#23292F"/>
<path d="M14.4187 5.86035H16.225L12.4656 9.58348C11.8084 10.2311 10.9227 10.5941 10 10.5941C9.0773 10.5941 8.19165 10.2311 7.53438 9.58348L3.77187 5.86035H5.58125L8.4375 8.68723C8.85343 9.09776 9.41433 9.32795 9.99875 9.32795C10.5832 9.32795 11.1441 9.09776 11.56 8.68723L14.4187 5.86035ZM5.55938 16.2122H3.75L7.53438 12.4666C8.19165 11.819 9.0773 11.456 10 11.456C10.9227 11.456 11.8084 11.819 12.4656 12.4666L16.25 16.2116H14.4406L11.5625 13.3604C11.1466 12.9498 10.5857 12.7196 10.0013 12.7196C9.41683 12.7196 8.85593 12.9498 8.44 13.3604L5.55875 16.2122H5.55938Z" fill="white"/>
</g>
</g>
</g>
<defs>
<clipPath id="clip0_1_916">
<rect width="20" height="20" fill="white" transform="translate(0 0.860352)"/>
</clipPath>
<clipPath id="clip1_1_916">
<rect width="20" height="20" fill="white" transform="translate(0 0.860352)"/>
</clipPath>
<clipPath id="clip2_1_916">
<rect width="20" height="20" fill="white" transform="translate(0 0.860352)"/>
</clipPath>
</defs>
</svg>
