<svg width="139" height="35" viewBox="0 0 139 35" fill="none" xmlns="http://www.w3.org/2000/svg">
<path d="M-0.5 -0.5H122.5C131.337 -0.5 138.5 6.66344 138.5 15.5V18.5C138.5 27.3366 131.337 34.5 122.5 34.5H-0.5V-0.5Z" fill="#69AF00"/>
<g filter="url(#filter0_d_2_1138)">
<path d="M20.8264 24L24.7144 12.3H27.4684L31.1044 24H28.4764L27.4684 20.724H23.4004L22.3384 24H20.8264ZM23.7604 19.59H27.1264L25.5244 14.082H25.4884L23.7604 19.59ZM42.0894 24.198C40.3254 24.198 38.9814 23.67 38.0574 22.614C37.1334 21.546 36.6714 20.088 36.6714 18.24C36.6714 17.016 36.8814 15.942 37.3014 15.018C37.7214 14.094 38.3334 13.38 39.1374 12.876C39.9414 12.372 40.8954 12.12 41.9994 12.12C42.5514 12.12 43.0914 12.192 43.6194 12.336C44.1594 12.468 44.6214 12.618 45.0054 12.786C45.4014 12.942 45.5994 13.026 45.5994 13.038L45.3474 14.352C45.2634 14.304 45.0594 14.214 44.7354 14.082C44.4114 13.938 44.0214 13.8 43.5654 13.668C43.1214 13.536 42.7014 13.47 42.3054 13.47C41.6334 13.47 41.0874 13.62 40.6674 13.92C40.2474 14.22 39.9294 14.712 39.7134 15.396C39.5094 16.08 39.4074 16.998 39.4074 18.15C39.4074 19.842 39.6534 21.048 40.1454 21.768C40.6374 22.488 41.3994 22.848 42.4314 22.848C43.0074 22.848 43.5114 22.728 43.9434 22.488C44.3874 22.236 44.7414 21.966 45.0054 21.678C45.2814 21.378 45.4194 21.21 45.4194 21.174L46.2114 22.038C46.2114 22.098 46.0494 22.314 45.7254 22.686C45.4134 23.058 44.9514 23.406 44.3394 23.73C43.7274 24.042 42.9774 24.198 42.0894 24.198ZM47.4745 15H49.1665L49.5625 16.512H49.6345C49.6345 16.44 49.6825 16.266 49.7785 15.99C49.8745 15.702 50.0485 15.432 50.3005 15.18C50.5645 14.928 50.9125 14.802 51.3445 14.802C51.5845 14.802 51.8545 14.838 52.1545 14.91C52.4665 14.982 52.6705 15.03 52.7665 15.054L52.5505 16.728C52.4545 16.704 52.2385 16.656 51.9025 16.584C51.5785 16.512 51.2965 16.476 51.0565 16.476C50.7805 16.476 50.5525 16.56 50.3725 16.728C50.2045 16.884 50.0785 17.052 49.9945 17.232C49.9105 17.412 49.8685 17.52 49.8685 17.556V24H47.4745V15ZM55.05 28.698C54.774 28.698 54.528 28.674 54.312 28.626C54.108 28.59 53.952 28.548 53.844 28.5C53.736 28.464 53.67 28.44 53.646 28.428L53.844 27.024C53.892 27.048 54.012 27.084 54.204 27.132C54.396 27.192 54.588 27.222 54.78 27.222C55.32 27.222 55.758 27.006 56.094 26.574C56.43 26.154 56.802 25.416 57.21 24.36L53.376 15H56.274L58.47 21.408L60.324 15H61.818L58.704 24.198C58.332 25.218 57.978 26.046 57.642 26.682C57.318 27.318 56.946 27.81 56.526 28.158C56.106 28.518 55.614 28.698 55.05 28.698ZM62.996 15H64.922L65.246 15.81H65.3C65.3 15.786 65.402 15.69 65.606 15.522C65.81 15.342 66.092 15.18 66.452 15.036C66.812 14.88 67.244 14.802 67.748 14.802C68.816 14.802 69.656 15.21 70.268 16.026C70.88 16.842 71.186 17.94 71.186 19.32C71.186 20.292 71.042 21.15 70.754 21.894C70.466 22.626 70.052 23.196 69.512 23.604C68.984 24 68.354 24.198 67.622 24.198C67.154 24.198 66.758 24.144 66.434 24.036C66.11 23.94 65.864 23.838 65.696 23.73C65.528 23.61 65.444 23.538 65.444 23.514H65.39V28.5L62.996 28.572V15ZM66.722 22.83C67.178 22.83 67.538 22.722 67.802 22.506C68.078 22.29 68.282 21.936 68.414 21.444C68.546 20.94 68.612 20.25 68.612 19.374C68.612 18.546 68.546 17.904 68.414 17.448C68.294 16.98 68.108 16.656 67.856 16.476C67.616 16.296 67.298 16.206 66.902 16.206C66.614 16.206 66.356 16.26 66.128 16.368C65.912 16.476 65.738 16.59 65.606 16.71C65.486 16.83 65.414 16.92 65.39 16.98V22.236C65.414 22.272 65.474 22.338 65.57 22.434C65.666 22.518 65.81 22.608 66.002 22.704C66.206 22.788 66.446 22.83 66.722 22.83ZM75.1266 24V13.596H71.9766V12.3H80.7606V13.596H77.6286V24H75.1266ZM85.7219 24.198C84.3779 24.198 83.3399 23.79 82.6079 22.974C81.8879 22.158 81.5279 21 81.5279 19.5C81.5279 18 81.8879 16.842 82.6079 16.026C83.3399 15.21 84.3779 14.802 85.7219 14.802C87.0779 14.802 88.1159 15.21 88.8359 16.026C89.5679 16.842 89.9339 18 89.9339 19.5C89.9339 20.988 89.5559 22.146 88.7999 22.974C88.0559 23.79 87.0299 24.198 85.7219 24.198ZM85.7219 23.01C86.1179 23.01 86.4299 22.896 86.6579 22.668C86.8979 22.44 87.0719 22.074 87.1799 21.57C87.2879 21.066 87.3419 20.376 87.3419 19.5C87.3419 18.624 87.2879 17.934 87.1799 17.43C87.0719 16.926 86.9039 16.566 86.6759 16.35C86.4479 16.122 86.1299 16.008 85.7219 16.008C85.3139 16.008 84.9959 16.122 84.7679 16.35C84.5399 16.566 84.3719 16.926 84.2639 17.43C84.1559 17.934 84.1019 18.618 84.1019 19.482C84.1019 20.358 84.1559 21.054 84.2639 21.57C84.3719 22.074 84.5399 22.44 84.7679 22.668C85.0079 22.896 85.3259 23.01 85.7219 23.01ZM91.5249 24V10.572L93.9189 10.428V18.816L95.1609 17.97L97.0689 15H98.5449L96.2049 18.348L99.1209 24H96.3849L94.3689 19.788L93.9189 20.076V24H91.5249ZM104.039 24.198C102.707 24.198 101.669 23.832 100.925 23.1C100.193 22.356 99.8267 21.21 99.8267 19.662C99.8267 18.102 100.187 16.908 100.907 16.08C101.627 15.24 102.599 14.82 103.823 14.82C104.939 14.82 105.803 15.174 106.415 15.882C107.039 16.578 107.351 17.58 107.351 18.888C107.351 19.188 107.327 19.44 107.279 19.644C107.243 19.848 107.219 19.974 107.207 20.022H102.365C102.377 21.102 102.533 21.87 102.833 22.326C103.145 22.77 103.643 22.992 104.327 22.992C104.735 22.992 105.095 22.908 105.407 22.74C105.719 22.56 105.965 22.368 106.145 22.164C106.325 21.948 106.415 21.828 106.415 21.804L107.225 22.434C107.225 22.482 107.099 22.656 106.847 22.956C106.607 23.256 106.247 23.538 105.767 23.802C105.299 24.066 104.723 24.198 104.039 24.198ZM105.119 18.852V18.438C105.119 17.526 105.023 16.89 104.831 16.53C104.639 16.158 104.303 15.972 103.823 15.972C103.487 15.972 103.217 16.056 103.013 16.224C102.821 16.392 102.671 16.686 102.563 17.106C102.455 17.514 102.389 18.096 102.365 18.852H105.119ZM108.91 15H110.836L111.142 15.738H111.214C111.214 15.714 111.31 15.624 111.502 15.468C111.706 15.312 111.994 15.168 112.366 15.036C112.738 14.892 113.2 14.82 113.752 14.82C114.676 14.82 115.366 15.072 115.822 15.576C116.29 16.068 116.524 16.842 116.524 17.898V24H114.13V18.384C114.13 17.58 114.04 17.034 113.86 16.746C113.692 16.458 113.38 16.314 112.924 16.314C112.612 16.314 112.336 16.362 112.096 16.458C111.856 16.554 111.664 16.662 111.52 16.782C111.376 16.89 111.304 16.95 111.304 16.962V24H108.91V15Z" fill="#ECDD91"/>
</g>
<a href="https://www.figma.com/design/gDxRfVdQj5A9qMoknHqJL9?node-id=2413-509">
<rect fill="black" fill-opacity="0" x="0.484375" y="-0.285999" width="10.944" height="22.572"/>
</a>
<defs>
<filter id="filter0_d_2_1138" x="20.8264" y="10.4282" width="96.6978" height="19.27" filterUnits="userSpaceOnUse" color-interpolation-filters="sRGB">
<feFlood flood-opacity="0" result="BackgroundImageFix"/>
<feColorMatrix in="SourceAlpha" type="matrix" values="0 0 0 0 0 0 0 0 0 0 0 0 0 0 0 0 0 0 127 0" result="hardAlpha"/>
<feOffset dx="1" dy="1"/>
<feComposite in2="hardAlpha" operator="out"/>
<feColorMatrix type="matrix" values="0 0 0 0 0.709804 0 0 0 0 0 0 0 0 0 1 0 0 0 0.3 0"/>
<feBlend mode="normal" in2="BackgroundImageFix" result="effect1_dropShadow_2_1138"/>
<feBlend mode="normal" in="SourceGraphic" in2="effect1_dropShadow_2_1138" result="shape"/>
</filter>
</defs>
</svg>
