<svg width="40" height="40" viewBox="0 0 40 40" fill="none" xmlns="http://www.w3.org/2000/svg">
<path d="M27.4995 7.49998C27.4995 3.3578 24.1417 0 19.9996 0C15.8575 0 12.4998 3.3578 12.4998 7.49998C12.4998 11.6422 15.8575 15 19.9996 15C24.1417 15 27.4995 11.6422 27.4995 7.49998ZM18.2489 18.8359C13.6138 15.9984 6.10613 15.2187 2.32808 15.0039C1.05857 14.932 0 15.8992 0 17.1203V34.5265C0 35.646 0.905451 36.5796 2.06949 36.6397C5.48036 36.8187 12.381 37.4741 17.1504 39.8765C17.8825 40.2452 18.7504 39.7429 18.7504 38.9491V19.7312C18.7496 19.3664 18.5692 19.032 18.2489 18.8359ZM37.6711 15.0039C33.8939 15.2179 26.3854 15.9984 21.7511 18.8359C21.4308 19.032 21.2504 19.3796 21.2504 19.7445V38.9468C21.2504 39.7429 22.1207 40.246 22.855 39.8765C27.6237 37.4765 34.5204 36.821 37.9305 36.6421C39.0945 36.5812 40 35.6476 40 34.528V17.1203C39.9992 15.8992 38.9406 14.932 37.6711 15.0039Z" fill="#ECDD91"/>
</svg>
