<svg width="53" height="52" viewBox="0 0 53 52" fill="none" xmlns="http://www.w3.org/2000/svg">
<path d="M26.5 0C12.1631 0 0.5 11.6631 0.5 26C0.5 40.3369 12.1631 52 26.5 52C40.8369 52 52.5 40.3369 52.5 26C52.5 11.6631 40.8369 0 26.5 0ZM34.5319 27.5319L23.6985 38.3651C23.4975 38.5666 23.2588 38.7264 22.9959 38.8354C22.733 38.9443 22.4512 39.0003 22.1666 39C21.8821 39.0003 21.6003 38.9443 21.3374 38.8354C21.0745 38.7264 20.8357 38.5666 20.6348 38.3651C19.7876 37.518 19.7876 36.1486 20.6348 35.3015L29.9364 26L20.6349 16.6985C19.7877 15.8514 19.7877 14.482 20.6349 13.6349C21.482 12.7877 22.8514 12.7877 23.6985 13.6349L34.5319 24.4682C35.379 25.3154 35.379 26.6846 34.5319 27.5319Z" fill="#B9954F"/>
</svg>
