<svg width="22" height="25" viewBox="0 0 22 25" fill="none" xmlns="http://www.w3.org/2000/svg">
<path d="M15.125 4.125C15.125 1.8468 13.2782 0 11 0C8.7218 0 6.875 1.8468 6.875 4.125C6.875 6.4032 8.7218 8.25 11 8.25C13.2782 8.25 15.125 6.4032 15.125 4.125ZM10.0371 10.3598C7.48773 8.79914 3.35844 8.37031 1.28047 8.25215C0.582227 8.21262 0 8.74457 0 9.41617V18.9896C0 19.6054 0.498008 20.1188 1.13824 20.1519C3.01426 20.2503 6.80969 20.6108 9.43293 21.9321C9.83555 22.1349 10.3129 21.8586 10.3129 21.4221V10.8522C10.3125 10.6515 10.2132 10.4676 10.0371 10.3598ZM20.7195 8.25215C18.642 8.36988 14.5123 8.79914 11.9634 10.3598C11.7872 10.4676 11.6879 10.6588 11.6879 10.8595V21.4208C11.6879 21.8586 12.1666 22.1354 12.5705 21.9321C15.1933 20.6121 18.9866 20.2516 20.8622 20.1532C21.5024 20.1197 22.0004 19.6062 22.0004 18.9905V9.41617C22 8.74457 21.4178 8.21262 20.7195 8.25215Z" fill="#ECDD91"/>
</svg>
