<svg width="27" height="25" viewBox="0 0 27 25" fill="none" xmlns="http://www.w3.org/2000/svg">
<path d="M16.3684 8.50564C16.3684 5.1304 12.8117 2.39453 8.42394 2.39453C4.03616 2.39453 0.479492 5.1304 0.479492 8.50564C0.479492 9.81457 1.01918 11.0246 1.92974 12.0188C1.41946 13.1738 0.575742 14.0881 0.56352 14.1011C0.522393 14.1444 0.494872 14.1989 0.484364 14.2577C0.473856 14.3165 0.480821 14.3771 0.504399 14.4319C0.527976 14.4868 0.56713 14.5336 0.617013 14.5664C0.666897 14.5993 0.725319 14.6168 0.785048 14.6168C2.1822 14.6168 3.3414 14.1489 4.17404 13.6627C5.4039 14.2638 6.85873 14.6168 8.42394 14.6168C12.8117 14.6168 16.3684 11.8809 16.3684 8.50564ZM7.81283 12.1723V11.5501C7.38161 11.528 6.96224 11.3775 6.61467 11.1166C6.46571 11.0047 6.45807 10.7816 6.5929 10.6529L7.04168 10.2248C7.14748 10.1239 7.30484 10.1194 7.42859 10.1969C7.5764 10.2893 7.74408 10.339 7.91824 10.339H8.99189C9.24015 10.339 9.44258 10.1129 9.44258 9.83519C9.44258 9.60793 9.3047 9.40779 9.10762 9.34898L7.38887 8.83335C6.67883 8.62023 6.18269 7.93884 6.18269 7.17609C6.18269 6.23957 6.91029 5.47873 7.81244 5.45467V4.83898C7.81244 4.67016 7.94918 4.53342 8.118 4.53342H8.72911C8.89793 4.53342 9.03467 4.67016 9.03467 4.83898V5.46116C9.46588 5.48332 9.88526 5.63342 10.2328 5.89467C10.3818 6.00658 10.3894 6.22964 10.2546 6.35835L9.80581 6.78651C9.70001 6.88734 9.54265 6.89193 9.4189 6.81439C9.27109 6.72158 9.10342 6.67231 8.92925 6.67231H7.8556C7.60734 6.67231 7.40491 6.89842 7.40491 7.17609C7.40491 7.40335 7.54279 7.60349 7.73987 7.66231L9.45862 8.17793C10.1687 8.39106 10.6648 9.07245 10.6648 9.83519C10.6648 10.7721 9.9372 11.5326 9.03505 11.5566V12.1723C9.03505 12.3411 8.89831 12.4779 8.72949 12.4779H8.11838C7.94956 12.4779 7.81283 12.3411 7.81283 12.1723ZM21.0285 16.908C21.9398 15.9138 22.4795 14.7035 22.4795 13.3945C22.4795 10.8378 20.4365 8.65078 17.5398 7.73908C17.5727 7.99116 17.5906 8.24668 17.5906 8.50564C17.5906 12.5493 13.4786 15.839 8.42394 15.839C8.0122 15.839 7.60963 15.8096 7.21203 15.7672C8.4163 17.9637 11.2415 19.5056 14.535 19.5056C16.1003 19.5056 17.5551 19.1527 18.7849 18.5515C19.6176 19.0378 20.7768 19.5056 22.1739 19.5056C22.2962 19.5056 22.4065 19.4327 22.4543 19.3208C22.5028 19.2085 22.4795 19.0786 22.3951 18.9896C22.3832 18.977 21.5388 18.0638 21.0285 16.908Z" fill="#ECDD91"/>
</svg>
