<svg width="28" height="25" viewBox="0 0 28 25" fill="none" xmlns="http://www.w3.org/2000/svg">
<path d="M19.3134 1.22266L22.77 7.33377H18.9086L16.2655 1.22266H19.3134ZM14.4245 1.22266L17.0676 7.33377H6.47245L9.11551 1.22266H14.4245ZM4.22662 1.22266H7.27453L4.63148 7.33377H0.77002L4.22662 1.22266ZM0.77002 8.55599H4.6162L9.31412 18.1695C9.37141 18.2879 9.21099 18.3949 9.12314 18.2956L0.77002 8.55599ZM6.43044 8.55599H17.1096L11.877 20.7095C11.8388 20.8011 11.7051 20.8011 11.6669 20.7095L6.43044 8.55599ZM14.2259 18.1695L18.9238 8.55599H22.77L14.4169 18.2918C14.329 18.3949 14.1686 18.2879 14.2259 18.1695Z" fill="#ECDD91"/>
</svg>
