<svg width="47" height="47" viewBox="0 0 47 47" fill="none" xmlns="http://www.w3.org/2000/svg">
<path d="M23.2847 46.0947C35.9872 46.0947 46.2847 35.7973 46.2847 23.0947C46.2847 10.3922 35.9872 0.0947266 23.2847 0.0947266C10.5821 0.0947266 0.284668 10.3922 0.284668 23.0947C0.284668 35.7973 10.5821 46.0947 23.2847 46.0947Z" fill="#5046AF"/>
<path d="M15.2166 31.9076H28.8805L28.2268 29.7891L29.7884 31.1298L31.2198 32.4099L33.8255 34.5889V13.9676C33.7825 13.3242 33.4966 12.7212 33.0257 12.2807C32.5549 11.8402 31.9342 11.595 31.2894 11.5949H15.2197C14.5783 11.5867 13.9594 11.8308 13.4963 12.2746C13.0333 12.7184 12.7631 13.3264 12.7441 13.9676V29.5349C12.7472 29.8541 12.814 30.1695 12.9406 30.4625C13.0672 30.7555 13.251 31.0203 13.4813 31.2413C13.7116 31.4623 13.9838 31.6351 14.2818 31.7495C14.5798 31.8639 14.8976 31.9176 15.2166 31.9076ZM18.0099 18.2528C18.9862 17.5084 20.1695 17.0854 21.3964 17.0423L21.5265 17.1724C19.3778 17.6839 18.4034 18.6462 18.4034 18.6462C18.4034 18.6462 18.6636 18.5191 19.1176 18.3224C20.557 17.7461 22.1024 17.4824 23.6514 17.5486C25.2005 17.6149 26.7178 18.0097 28.1027 18.7068C28.1027 18.7068 27.1252 17.7989 25.1097 17.233L25.2882 17.0574C26.4957 17.1101 27.6578 17.5327 28.6172 18.268C29.7324 20.3382 30.3383 22.6444 30.3845 24.9955C30.3301 24.9107 29.292 26.5903 26.6137 26.6478C26.6137 26.6478 26.1628 26.1333 25.839 25.6885C27.4036 25.2406 27.9877 24.3418 27.9877 24.3418C27.5466 24.6018 27.092 24.8382 26.6259 25.0499C26.0614 25.2785 25.4754 25.4499 24.8766 25.5614C22.1106 26.0093 20.5611 25.2587 19.0934 24.6535L18.594 24.3962C18.594 24.3962 19.1751 25.3041 20.6761 25.743C20.4094 26.0648 20.1501 26.3928 19.8984 26.7265C17.2291 26.663 16.2668 24.9955 16.2668 24.9955C16.3043 22.6414 16.9019 20.3301 18.0099 18.2528Z" fill="white"/>
<path d="M25.4971 23.8338C25.8262 23.8178 26.1366 23.6758 26.3639 23.4372C26.5912 23.1986 26.7179 22.8817 26.7179 22.5522C26.7179 22.2226 26.5912 21.9057 26.3639 21.6671C26.1366 21.4285 25.8262 21.2865 25.4971 21.2705C25.1576 21.2705 24.832 21.4054 24.5919 21.6454C24.3518 21.8855 24.217 22.2111 24.217 22.5506C24.217 22.8902 24.3518 23.2158 24.5919 23.4558C24.832 23.6959 25.1576 23.8308 25.4971 23.8308V23.8338ZM21.0726 23.8338C21.4018 23.8178 21.7121 23.6758 21.9394 23.4372C22.1667 23.1986 22.2935 22.8817 22.2935 22.5522C22.2935 22.2226 22.1667 21.9057 21.9394 21.6671C21.7121 21.4285 21.4018 21.2865 21.0726 21.2705C20.7331 21.2705 20.4075 21.4054 20.1674 21.6454C19.9274 21.8855 19.7925 22.2111 19.7925 22.5506C19.7925 22.8902 19.9274 23.2158 20.1674 23.4558C20.4075 23.6959 20.7331 23.8308 21.0726 23.8308V23.8338Z" fill="white"/>
</svg>
