<svg width="47" height="47" viewBox="0 0 47 47" fill="none" xmlns="http://www.w3.org/2000/svg">
<rect x="0.0947266" width="46.19" height="46.19" rx="23.095" fill="#EA4335"/>
<path d="M33.778 20.298C33.9456 20.1648 34.1948 20.2895 34.1948 20.5V29.2871C34.1948 30.4258 33.271 31.3496 32.1323 31.3496H14.2573C13.1187 31.3496 12.1948 30.4258 12.1948 29.2871V20.5043C12.1948 20.2895 12.4397 20.1691 12.6116 20.3023C13.5741 21.05 14.8503 21.9996 19.2331 25.1836C20.1397 25.8453 21.6694 27.2375 23.1948 27.2289C24.7288 27.2418 26.2886 25.8195 27.1608 25.1836C31.5437 21.9996 32.8155 21.0457 33.778 20.298ZM23.1948 25.8496C24.1917 25.8668 25.6269 24.5949 26.3487 24.0707C32.0507 19.9328 32.4847 19.5719 33.7995 18.5406C34.0487 18.3473 34.1948 18.0465 34.1948 17.7285V16.9121C34.1948 15.7734 33.271 14.8496 32.1323 14.8496H14.2573C13.1187 14.8496 12.1948 15.7734 12.1948 16.9121V17.7285C12.1948 18.0465 12.3409 18.343 12.5901 18.5406C13.905 19.5676 14.339 19.9328 20.0409 24.0707C20.7628 24.5949 22.1979 25.8668 23.1948 25.8496Z" fill="white"/>
</svg>
