<svg width="50" height="50" viewBox="0 0 50 50" fill="none" xmlns="http://www.w3.org/2000/svg">
<rect width="50" height="50" rx="8" fill="#F6DDA5"/>
<path d="M34.8469 24.5C34.8469 29.3438 31.2922 33.3672 26.6438 34.0703V27.3125H28.9094L29.3391 24.5H26.6438V22.7031C26.6438 21.9219 27.0344 21.1797 28.2453 21.1797H29.4563V18.7969C29.4563 18.7969 28.3625 18.6016 27.2688 18.6016C25.0813 18.6016 23.6359 19.9688 23.6359 22.3906V24.5H21.175V27.3125H23.6359V34.0703C18.9875 33.3672 15.4719 29.3438 15.4719 24.5C15.4719 19.1484 19.8078 14.8125 25.1594 14.8125C30.5109 14.8125 34.8469 19.1484 34.8469 24.5Z" fill="#69AF00"/>
</svg>
