<svg width="47" height="47" viewBox="0 0 47 47" fill="none" xmlns="http://www.w3.org/2000/svg">
<rect x="0.284668" width="46.19" height="46.19" rx="23.095" fill="#3B5998"/>
<path d="M34.041 23.0996C34.041 17.2129 29.2715 12.4434 23.3848 12.4434C17.498 12.4434 12.7285 17.2129 12.7285 23.0996C12.7285 28.4183 16.6254 32.8269 21.7197 33.627V26.18H19.0127V23.0996H21.7197V20.7518C21.7197 18.0813 23.3096 16.6062 25.7446 16.6062C26.9108 16.6062 28.1302 16.8141 28.1302 16.8141V19.4352H26.7862C25.4627 19.4352 25.0498 20.2568 25.0498 21.0994V23.0996H28.0052L27.5325 26.18H25.0498V33.627C30.1442 32.8269 34.041 28.4183 34.041 23.0996Z" fill="white"/>
</svg>
