<svg width="78" height="78" viewBox="0 0 78 78" fill="none" xmlns="http://www.w3.org/2000/svg">
<g filter="url(#filter0_d_1_2014)">
<rect x="74" width="70" height="70" rx="35" transform="rotate(90 74 0)" fill="#33373D" shape-rendering="crispEdges"/>
<rect x="73.5" y="0.5" width="69" height="69" rx="34.5" transform="rotate(90 73.5 0.5)" stroke="url(#paint0_linear_1_2014)" shape-rendering="crispEdges"/>
<path d="M65 35C65 20.6631 53.3369 9 39 9C24.6631 9 13 20.6631 13 35C13 49.3369 24.6631 61 39 61C53.3369 61 65 49.3369 65 35ZM37.4681 43.0319L26.6349 32.1985C26.4334 31.9975 26.2736 31.7588 26.1646 31.4959C26.0557 31.233 25.9997 30.9512 26 30.6666C25.9997 30.3821 26.0557 30.1003 26.1646 29.8374C26.2736 29.5745 26.4334 29.3357 26.6349 29.1348C27.482 28.2876 28.8514 28.2876 29.6985 29.1348L39 38.4364L48.3015 29.1349C49.1486 28.2877 50.518 28.2877 51.3651 29.1349C52.2123 29.982 52.2123 31.3514 51.3651 32.1985L40.5318 43.0319C39.6846 43.879 38.3154 43.879 37.4681 43.0319Z" fill="#B9954F"/>
</g>
<defs>
<filter id="filter0_d_1_2014" x="0" y="0" width="78" height="78" filterUnits="userSpaceOnUse" color-interpolation-filters="sRGB">
<feFlood flood-opacity="0" result="BackgroundImageFix"/>
<feColorMatrix in="SourceAlpha" type="matrix" values="0 0 0 0 0 0 0 0 0 0 0 0 0 0 0 0 0 0 127 0" result="hardAlpha"/>
<feOffset dy="4"/>
<feGaussianBlur stdDeviation="2"/>
<feComposite in2="hardAlpha" operator="out"/>
<feColorMatrix type="matrix" values="0 0 0 0 0 0 0 0 0 0 0 0 0 0 0 0 0 0 0.11 0"/>
<feBlend mode="normal" in2="BackgroundImageFix" result="effect1_dropShadow_1_2014"/>
<feBlend mode="normal" in="SourceGraphic" in2="effect1_dropShadow_1_2014" result="shape"/>
</filter>
<linearGradient id="paint0_linear_1_2014" x1="74" y1="35" x2="144" y2="35" gradientUnits="userSpaceOnUse">
<stop stop-color="#ECDD91"/>
<stop offset="0.46" stop-color="#D5BC73" stop-opacity="0"/>
<stop offset="1" stop-color="#B9954F"/>
</linearGradient>
</defs>
</svg>
