<svg width="47" height="47" viewBox="0 0 47 47" fill="none" xmlns="http://www.w3.org/2000/svg">
<rect x="0.474609" width="46.19" height="46.19" rx="23.095" fill="#262626"/>
<path d="M23.5686 18.1579C20.8357 18.1579 18.6314 20.3622 18.6314 23.095C18.6314 25.8278 20.8357 28.0321 23.5686 28.0321C26.3014 28.0321 28.5057 25.8278 28.5057 23.095C28.5057 20.3622 26.3014 18.1579 23.5686 18.1579ZM23.5686 26.3048C21.8025 26.3048 20.3588 24.8653 20.3588 23.095C20.3588 21.3247 21.7982 19.8853 23.5686 19.8853C25.3389 19.8853 26.7783 21.3247 26.7783 23.095C26.7783 24.8653 25.3346 26.3048 23.5686 26.3048ZM29.8592 17.956C29.8592 18.5962 29.3436 19.1075 28.7076 19.1075C28.0674 19.1075 27.5561 18.5919 27.5561 17.956C27.5561 17.32 28.0717 16.8044 28.7076 16.8044C29.3436 16.8044 29.8592 17.32 29.8592 17.956ZM33.1291 19.1247C33.0561 17.5821 32.7037 16.2157 31.5736 15.0899C30.4479 13.9642 29.0814 13.6118 27.5389 13.5345C25.949 13.4442 21.1838 13.4442 19.5939 13.5345C18.0557 13.6075 16.6893 13.9599 15.5592 15.0856C14.4291 16.2114 14.0811 17.5778 14.0037 19.1204C13.9135 20.7103 13.9135 25.4755 14.0037 27.0653C14.0768 28.6079 14.4291 29.9743 15.5592 31.1001C16.6893 32.2259 18.0514 32.5782 19.5939 32.6556C21.1838 32.7458 25.949 32.7458 27.5389 32.6556C29.0814 32.5825 30.4479 32.2302 31.5736 31.1001C32.6994 29.9743 33.0518 28.6079 33.1291 27.0653C33.2193 25.4755 33.2193 20.7146 33.1291 19.1247ZM31.0752 28.7712C30.74 29.6134 30.0912 30.2622 29.2447 30.6017C27.9771 31.1044 24.9693 30.9884 23.5686 30.9884C22.1678 30.9884 19.1557 31.1001 17.8924 30.6017C17.0502 30.2665 16.4014 29.6177 16.0619 28.7712C15.5592 27.5036 15.6752 24.4958 15.6752 23.095C15.6752 21.6942 15.5635 18.6821 16.0619 17.4188C16.3971 16.5767 17.0459 15.9278 17.8924 15.5884C19.16 15.0856 22.1678 15.2017 23.5686 15.2017C24.9693 15.2017 27.9814 15.0899 29.2447 15.5884C30.0869 15.9235 30.7357 16.5724 31.0752 17.4188C31.5779 18.6864 31.4619 21.6942 31.4619 23.095C31.4619 24.4958 31.5779 27.5079 31.0752 28.7712Z" fill="white"/>
</svg>
