<svg width="47" height="47" viewBox="0 0 47 47" fill="none" xmlns="http://www.w3.org/2000/svg">
<path d="M23.8101 46.905C36.5126 46.905 46.8101 36.6075 46.8101 23.905C46.8101 11.2024 36.5126 0.904999 23.8101 0.904999C11.1075 0.904999 0.810059 11.2024 0.810059 23.905C0.810059 36.6075 11.1075 46.905 23.8101 46.905Z" fill="#5046AF"/>
<path d="M15.7423 32.7177H29.4061L28.7524 30.5993L30.314 31.9399L31.7454 33.22L34.3511 35.399V14.7777C34.3081 14.1343 34.0222 13.5313 33.5514 13.0908C33.0805 12.6503 32.4598 12.4051 31.815 12.405H15.7453C15.1039 12.3968 14.485 12.6409 14.022 13.0847C13.5589 13.5286 13.2888 14.1366 13.2698 14.7777V30.345C13.2728 30.6642 13.3396 30.9796 13.4662 31.2726C13.5928 31.5656 13.7767 31.8304 14.007 32.0514C14.2373 32.2724 14.5094 32.4452 14.8074 32.5596C15.1054 32.674 15.4232 32.7278 15.7423 32.7177ZM18.5356 19.0629C19.5118 18.3185 20.6951 17.8956 21.922 17.8524L22.0521 17.9825C19.9035 18.494 18.929 19.4564 18.929 19.4564C18.929 19.4564 19.1892 19.3293 19.6432 19.1325C21.0826 18.5563 22.628 18.2925 24.1771 18.3588C25.7261 18.425 27.2434 18.8198 28.6283 19.5169C28.6283 19.5169 27.6508 18.609 25.6353 18.0431L25.8139 17.8675C27.0214 17.9203 28.1835 18.3429 29.1428 19.0781C30.2581 21.1483 30.8639 23.4545 30.9102 25.8056C30.8557 25.7208 29.8177 27.4004 27.1394 27.4579C27.1394 27.4579 26.6885 26.9435 26.3646 26.4986C27.9293 26.0507 28.5133 25.1519 28.5133 25.1519C28.0723 25.4119 27.6177 25.6483 27.1515 25.86C26.587 26.0886 26.001 26.26 25.4023 26.3715C22.6362 26.8194 21.0868 26.0689 19.619 25.4636L19.1196 25.2064C19.1196 25.2064 19.7007 26.1143 21.2017 26.5531C20.935 26.8749 20.6757 27.2029 20.424 27.5366C17.7548 27.4731 16.7924 25.8056 16.7924 25.8056C16.83 23.4515 17.4275 21.1402 18.5356 19.0629Z" fill="white"/>
<path d="M26.0227 24.6435C26.3519 24.6275 26.6622 24.4855 26.8895 24.2469C27.1168 24.0083 27.2436 23.6914 27.2436 23.3618C27.2436 23.0323 27.1168 22.7154 26.8895 22.4768C26.6622 22.2382 26.3519 22.0962 26.0227 22.0802C25.6832 22.0802 25.3576 22.215 25.1175 22.4551C24.8775 22.6952 24.7426 23.0208 24.7426 23.3603C24.7426 23.6998 24.8775 24.0254 25.1175 24.2655C25.3576 24.5056 25.6832 24.6404 26.0227 24.6404V24.6435ZM21.5982 24.6435C21.9274 24.6275 22.2378 24.4855 22.465 24.2469C22.6923 24.0083 22.8191 23.6914 22.8191 23.3618C22.8191 23.0323 22.6923 22.7154 22.465 22.4768C22.2378 22.2382 21.9274 22.0962 21.5982 22.0802C21.2587 22.0802 20.9331 22.215 20.6931 22.4551C20.453 22.6952 20.3181 23.0208 20.3181 23.3603C20.3181 23.6998 20.453 24.0254 20.6931 24.2655C20.9331 24.5056 21.2587 24.6404 21.5982 24.6404V24.6435Z" fill="white"/>
</svg>
