<svg width="47" height="47" viewBox="0 0 47 47" fill="none" xmlns="http://www.w3.org/2000/svg">
<rect x="0.664551" width="46.19" height="46.19" rx="23.095" fill="#0077B5"/>
<path d="M32.0044 13.4746H15.5001C14.7438 13.4746 14.1294 14.0977 14.1294 14.8625V31.3367C14.1294 32.1016 14.7438 32.7246 15.5001 32.7246H32.0044C32.7606 32.7246 33.3794 32.1016 33.3794 31.3367V14.8625C33.3794 14.0977 32.7606 13.4746 32.0044 13.4746ZM19.9474 29.9746H17.0942V20.7879H19.9517V29.9746H19.9474ZM18.5208 19.5332C17.6056 19.5332 16.8665 18.7898 16.8665 17.8789C16.8665 16.968 17.6056 16.2246 18.5208 16.2246C19.4317 16.2246 20.1751 16.968 20.1751 17.8789C20.1751 18.7941 19.436 19.5332 18.5208 19.5332ZM30.6423 29.9746H27.7892V25.5059C27.7892 24.4402 27.7677 23.0695 26.3067 23.0695C24.82 23.0695 24.5923 24.2297 24.5923 25.4285V29.9746H21.7392V20.7879H24.4763V22.0426H24.5149C24.8974 21.3207 25.8298 20.5602 27.2177 20.5602C30.1052 20.5602 30.6423 22.4637 30.6423 24.9387V29.9746Z" fill="white"/>
</svg>
