<svg width="50" height="50" viewBox="0 0 50 50" fill="none" xmlns="http://www.w3.org/2000/svg">
<rect width="50" height="50" rx="8" fill="#F6DDA5"/>
<path d="M33.0891 20.4375C33.0891 20.6328 33.0891 20.7891 33.0891 20.9844C33.0891 26.4141 28.9875 32.625 21.4484 32.625C19.1047 32.625 16.9563 31.9609 15.1594 30.7891C15.4719 30.8281 15.7844 30.8672 16.1359 30.8672C18.05 30.8672 19.8078 30.2031 21.2141 29.1094C19.4172 29.0703 17.8938 27.8984 17.3859 26.2578C17.6594 26.2969 17.8938 26.3359 18.1672 26.3359C18.5188 26.3359 18.9094 26.2578 19.2219 26.1797C17.3469 25.7891 15.9406 24.1484 15.9406 22.1562V22.1172C16.4875 22.4297 17.1516 22.5859 17.8156 22.625C16.6828 21.8828 15.9797 20.6328 15.9797 19.2266C15.9797 18.4453 16.175 17.7422 16.5266 17.1562C18.5578 19.6172 21.6047 21.2578 25.0031 21.4531C24.925 21.1406 24.8859 20.8281 24.8859 20.5156C24.8859 18.25 26.7219 16.4141 28.9875 16.4141C30.1594 16.4141 31.2141 16.8828 31.9953 17.7031C32.8938 17.5078 33.7922 17.1562 34.5734 16.6875C34.2609 17.6641 33.6359 18.4453 32.7766 18.9531C33.5969 18.875 34.4172 18.6406 35.1203 18.3281C34.5734 19.1484 33.8703 19.8516 33.0891 20.4375Z" fill="#69AF00"/>
</svg>
