<svg width="134" height="36" viewBox="0 0 134 36" fill="none" xmlns="http://www.w3.org/2000/svg">
<path d="M0.5 16.5C0.5 7.66344 7.66344 0.5 16.5 0.5H139.5V35.5H16.5C7.66344 35.5 0.5 28.3366 0.5 19.5V16.5Z" fill="#69AF00"/>
<path d="M55.6956 24C55.0116 24 54.4296 23.898 53.9496 23.694C53.4816 23.478 53.1276 23.142 52.8876 22.686C52.6596 22.218 52.5456 21.606 52.5456 20.85V10.68H55.2096V20.418C55.2096 20.706 55.2576 20.94 55.3536 21.12C55.4616 21.3 55.6056 21.426 55.7856 21.498C55.9656 21.558 56.1696 21.588 56.3976 21.588H60.6096V24H55.6956ZM62.1784 24V10.68H64.8424V24H62.1784ZM70.483 24L66.307 10.68H69.061L72.175 21.12L75.289 10.68H78.025L73.849 24H70.483ZM82.2582 24.09C81.9702 24.09 81.6402 24.06 81.2682 24C80.8962 23.952 80.5362 23.832 80.1882 23.64C79.8522 23.448 79.5702 23.16 79.3422 22.776C79.1262 22.38 79.0182 21.84 79.0182 21.156V13.722C79.0182 13.134 79.1082 12.642 79.2882 12.246C79.4682 11.85 79.7082 11.538 80.0082 11.31C80.3082 11.082 80.6382 10.92 80.9982 10.824C81.3582 10.728 81.7122 10.68 82.0602 10.68C82.9602 10.68 83.7522 10.692 84.4362 10.716C85.1322 10.74 85.7562 10.77 86.3082 10.806C86.8602 10.83 87.3642 10.866 87.8202 10.914V13.146H82.8522C82.4802 13.146 82.1922 13.236 81.9882 13.416C81.7842 13.596 81.6822 13.872 81.6822 14.244V16.17L86.9562 16.314V18.42L81.6822 18.564V20.4C81.6822 20.712 81.7302 20.958 81.8262 21.138C81.9342 21.306 82.0722 21.426 82.2402 21.498C82.4202 21.558 82.6062 21.588 82.7982 21.588H87.8202V23.82C87.2922 23.88 86.7042 23.928 86.0562 23.964C85.4202 24 84.7722 24.03 84.1122 24.054C83.4642 24.078 82.8462 24.09 82.2582 24.09Z" fill="white"/>
</svg>
