<svg width="198" height="46" viewBox="0 0 198 46" fill="none" xmlns="http://www.w3.org/2000/svg">
<rect y="0.5" width="198" height="45" rx="22.5" fill="#69AF00"/>
<path d="M40.0434 11.7222L43.5 17.8333H39.6385L36.9955 11.7222H40.0434ZM35.1545 11.7222L37.7976 17.8333H27.2024L29.8455 11.7222H35.1545ZM24.9566 11.7222H28.0045L25.3615 17.8333H21.5L24.9566 11.7222ZM21.5 19.0555H25.3462L30.0441 28.669C30.1014 28.7874 29.941 28.8944 29.8531 28.7951L21.5 19.0555ZM27.1604 19.0555H37.8396L32.6069 31.209C32.5687 31.3006 32.4351 31.3006 32.3969 31.209L27.1604 19.0555ZM34.9559 28.669L39.6538 19.0555H43.5L35.1469 28.7913C35.059 28.8944 34.8986 28.7874 34.9559 28.669Z" fill="#ECDD91"/>
<g filter="url(#filter0_d_2_1151)">
<path d="M62.0085 29.5L62.1845 15.2H65.8585L69.8625 25.738H69.9505L73.8885 15.2H77.2985L77.4525 29.5H74.4825L74.3285 18.676H74.2625L70.2805 29.5H68.0145L64.0325 18.676H63.9665L63.9005 29.5H62.0085ZM80.8503 29.5V15.2H83.8863V29.5H80.8503ZM87.2956 29.5V15.2H90.4416L96.4476 24.902H96.4916L96.3376 23.912V15.2H98.2296V29.5H95.8536L89.0556 18.764H89.0116L89.1876 20.04V29.5H87.2956ZM104.09 29.5V16.784H100.24V15.2H110.976V16.784H107.148V29.5H104.09ZM118.577 29.5V15.2H121.723L127.729 24.902H127.773L127.619 23.912V15.2H129.511V29.5H127.135L120.337 18.764H120.293L120.469 20.04V29.5H118.577ZM138.473 29.742C136.405 29.742 134.806 29.0893 133.677 27.784C132.562 26.464 132.005 24.66 132.005 22.372C132.005 20.084 132.562 18.28 133.677 16.96C134.806 15.64 136.405 14.98 138.473 14.98C140.556 14.98 142.162 15.6473 143.291 16.982C144.435 18.302 145.007 20.0987 145.007 22.372C145.007 24.6453 144.435 26.442 143.291 27.762C142.162 29.082 140.556 29.742 138.473 29.742ZM138.473 28.18C139.602 28.18 140.409 27.7253 140.893 26.816C141.392 25.892 141.641 24.4107 141.641 22.372C141.641 20.348 141.392 18.874 140.893 17.95C140.394 17.026 139.588 16.564 138.473 16.564C137.373 16.564 136.574 17.026 136.075 17.95C135.591 18.874 135.349 20.348 135.349 22.372C135.349 24.4107 135.591 25.892 136.075 26.816C136.559 27.7253 137.358 28.18 138.473 28.18ZM149.483 29.5L145.677 15.2H148.911L151.551 26.024H151.595L154.521 15.2H156.963L159.977 25.958H160.043L162.529 15.2H164.465L160.725 29.5H158.129L155.137 18.94H155.093L152.123 29.5H149.483Z" fill="#ECDD91"/>
</g>
<defs>
<filter id="filter0_d_2_1151" x="62.0085" y="14.98" width="103.456" height="15.7622" filterUnits="userSpaceOnUse" color-interpolation-filters="sRGB">
<feFlood flood-opacity="0" result="BackgroundImageFix"/>
<feColorMatrix in="SourceAlpha" type="matrix" values="0 0 0 0 0 0 0 0 0 0 0 0 0 0 0 0 0 0 127 0" result="hardAlpha"/>
<feOffset dx="1" dy="1"/>
<feComposite in2="hardAlpha" operator="out"/>
<feColorMatrix type="matrix" values="0 0 0 0 0.709804 0 0 0 0 0 0 0 0 0 1 0 0 0 0.3 0"/>
<feBlend mode="normal" in2="BackgroundImageFix" result="effect1_dropShadow_2_1151"/>
<feBlend mode="normal" in="SourceGraphic" in2="effect1_dropShadow_2_1151" result="shape"/>
</filter>
</defs>
</svg>
