<svg width="23" height="25" viewBox="0 0 23 25" fill="none" xmlns="http://www.w3.org/2000/svg">
<path d="M15.3343 5.57992L9.13223 8.41457C8.83227 8.55168 8.59172 8.79223 8.45461 9.09219L5.61996 15.2943C5.29297 16.0097 6.02988 16.7471 6.74574 16.4201L12.9479 13.5854C13.2478 13.4483 13.4884 13.2078 13.6255 12.9078L16.4601 6.7057C16.7871 5.98984 16.0502 5.25293 15.3343 5.57992ZM12.0103 11.9702C11.4745 12.5061 10.6056 12.5061 10.0698 11.9702C9.53398 11.4344 9.53398 10.5656 10.0698 10.0298C10.6056 9.49395 11.4745 9.49395 12.0103 10.0298C12.5461 10.5656 12.5461 11.4344 12.0103 11.9702ZM11.04 0.34375C5.15461 0.34375 0.383789 5.11457 0.383789 11C0.383789 16.8854 5.15461 21.6562 11.04 21.6562C16.9255 21.6562 21.6963 16.8854 21.6963 11C21.6963 5.11457 16.9255 0.34375 11.04 0.34375ZM11.04 19.5938C6.30145 19.5938 2.44629 15.7386 2.44629 11C2.44629 6.26141 6.30145 2.40625 11.04 2.40625C15.7786 2.40625 19.6338 6.26141 19.6338 11C19.6338 15.7386 15.7786 19.5938 11.04 19.5938Z" fill="#ECDD91"/>
</svg>
