<svg width="48" height="47" viewBox="0 0 48 47" fill="none" xmlns="http://www.w3.org/2000/svg">
<rect x="0.854492" width="46.19" height="46.19" rx="23.095" fill="#2CA5E0"/>
<path d="M23.9546 12.4434C18.0679 12.4434 13.2983 17.2129 13.2983 23.0996C13.2983 28.9863 18.0679 33.7559 23.9546 33.7559C29.8413 33.7559 34.6108 28.9863 34.6108 23.0996C34.6108 17.2129 29.8413 12.4434 23.9546 12.4434ZM29.1882 19.7437L27.4394 27.9852C27.3104 28.5695 26.9624 28.7113 26.4769 28.4363L23.8128 26.4727L22.528 27.7102C22.3862 27.852 22.2659 27.9723 21.9909 27.9723L22.18 25.2609L27.1171 20.8008C27.3319 20.6117 27.0698 20.5043 26.7862 20.6934L20.6847 24.5348L18.055 23.7141C17.4835 23.5336 17.4706 23.1426 18.1753 22.8676L28.4491 18.9059C28.9261 18.734 29.3429 19.0219 29.1882 19.7437Z" fill="white"/>
</svg>
