<svg width="47" height="48" viewBox="0 0 47 48" fill="none" xmlns="http://www.w3.org/2000/svg">
<rect x="0.810059" y="0.904999" width="46.19" height="46.19" rx="23.095" fill="#2CA5E0"/>
<path d="M23.9102 13.3487C18.0234 13.3487 13.2539 18.1183 13.2539 24.005C13.2539 29.8917 18.0234 34.6612 23.9102 34.6612C29.7969 34.6612 34.5664 29.8917 34.5664 24.005C34.5664 18.1183 29.7969 13.3487 23.9102 13.3487ZM29.1437 20.6491L27.3949 28.8905C27.266 29.4749 26.918 29.6167 26.4324 29.3417L23.7684 27.378L22.4836 28.6155C22.3418 28.7573 22.2215 28.8777 21.9465 28.8777L22.1355 26.1663L27.0727 21.7062C27.2875 21.5171 27.0254 21.4097 26.7418 21.5987L20.6402 25.4402L18.0105 24.6194C17.4391 24.439 17.4262 24.048 18.1309 23.773L28.4047 19.8112C28.8816 19.6394 29.2984 19.9273 29.1437 20.6491Z" fill="white"/>
</svg>
