<svg width="31" height="30" viewBox="0 0 31 30" fill="none" xmlns="http://www.w3.org/2000/svg">
<path d="M27.7806 10.5863C27.4079 10.2105 27.1979 9.70323 27.1958 9.17397V7.39044C27.1944 6.30619 26.7629 5.26679 25.9961 4.50024C25.2293 3.73369 24.1898 3.30257 23.1056 3.30147H21.3249C21.0627 3.30216 20.8029 3.25097 20.5605 3.15086C20.3181 3.05074 20.0979 2.90368 19.9126 2.71812L18.3915 1.19557C17.624 0.429956 16.5841 0 15.5 0C14.4159 0 13.376 0.429956 12.6085 1.19557L11.0874 2.71812C10.9022 2.90393 10.682 3.05125 10.4397 3.15161C10.1973 3.25196 9.93744 3.30337 9.67511 3.30286H7.89303C6.80881 3.30397 5.76929 3.73508 5.0025 4.50164C4.23571 5.26819 3.80425 6.30759 3.80277 7.39184V9.17397C3.80135 9.70266 3.59179 10.2095 3.21945 10.5849L1.69554 12.1074C0.929944 12.875 0.5 13.9149 0.5 14.999C0.5 16.0831 0.929944 17.123 1.69554 17.8906L3.21945 19.4118C3.59213 19.7876 3.80214 20.2948 3.80417 20.8241V22.6076C3.80564 23.6918 4.2371 24.7312 5.00389 25.4978C5.77069 26.2643 6.81021 26.6955 7.89443 26.6966H9.67511C9.93744 26.6961 10.1973 26.7475 10.4397 26.8478C10.682 26.9482 10.9022 27.0955 11.0874 27.2813L12.6085 28.8039C13.3759 29.5698 14.4158 30 15.5 30C16.5842 30 17.6241 29.5698 18.3915 28.8039L19.9126 27.2813C20.0978 27.0955 20.318 26.9482 20.5603 26.8478C20.8027 26.7475 21.0626 26.6961 21.3249 26.6966H23.107C24.1912 26.6955 25.2307 26.2643 25.9975 25.4978C26.7643 24.7312 27.1957 23.6918 27.1972 22.6076V20.8241C27.1984 20.295 27.4086 19.7879 27.7819 19.4132L29.3045 17.8906C30.0701 17.123 30.5 16.0831 30.5 14.999C30.5 13.9149 30.0701 12.875 29.3045 12.1074L27.7806 10.5863Z" fill="#2196F3"/>
<path d="M15.4998 24.419C20.7022 24.419 24.9196 20.2015 24.9196 14.999C24.9196 9.79649 20.7022 5.57901 15.4998 5.57901C10.2974 5.57901 6.08008 9.79649 6.08008 14.999C6.08008 20.2015 10.2974 24.419 15.4998 24.419Z" fill="#29B3FF"/>
<path d="M14.1045 18.8368C13.9671 18.8371 13.8309 18.8102 13.7039 18.7575C13.577 18.7048 13.4617 18.6274 13.3649 18.5298L10.5739 15.7387C10.389 15.5402 10.2883 15.2778 10.2931 15.0067C10.2979 14.7355 10.4078 14.4768 10.5995 14.285C10.7913 14.0933 11.05 13.9834 11.3211 13.9786C11.5923 13.9738 11.8547 14.0745 12.0531 14.2594L14.1045 16.3094L18.947 11.4683C19.1454 11.2834 19.4078 11.1827 19.679 11.1875C19.9501 11.1923 20.2088 11.3021 20.4006 11.4939C20.5923 11.6857 20.7022 11.9444 20.707 12.2156C20.7118 12.4867 20.6111 12.7491 20.4262 12.9476L14.8442 18.5298C14.7473 18.6274 14.6321 18.7048 14.5051 18.7575C14.3782 18.8102 14.242 18.8371 14.1045 18.8368Z" fill="white"/>
</svg>
