<svg width="106" height="106" viewBox="0 0 106 106" fill="none" xmlns="http://www.w3.org/2000/svg">
<rect x="1.5" y="1.5" width="103" height="103" rx="51.5" fill="white"/>
<rect x="1.5" y="1.5" width="103" height="103" rx="51.5" stroke="#06752E" stroke-width="3"/>
<path d="M41.8889 69.6662C39.6667 69.6662 37.4444 67.7218 36.3333 66.8885C30.7778 62.9996 29.1111 61.6107 28 60.7773V72.444C28 73.9779 29.2439 75.2218 30.7778 75.2218H53C54.5339 75.2218 55.7778 73.9779 55.7778 72.444V60.7773C54.6667 61.6107 53 62.9996 47.4444 66.8885C46.3333 67.7218 44.1111 69.6662 41.8889 69.6662ZM53 52.9996H30.7778C29.2439 52.9996 28 54.2435 28 55.7773V57.1662C30.2222 58.8329 29.9444 58.8329 38 64.6662C38.8333 65.2218 40.5 66.8885 41.8889 66.8885C43.2778 66.8885 44.9444 65.2218 45.7778 64.944C53.8333 59.1107 53.5556 59.1107 55.7778 57.444V55.7773C55.7778 54.2435 54.5339 52.9996 53 52.9996ZM75.2222 44.6662H47.4444C45.9106 44.6662 44.6667 45.9102 44.6667 47.444V50.2218H53C55.8828 50.2218 58.2595 52.4284 58.5304 55.2409L58.5556 55.2218V66.8885H75.2222C76.7561 66.8885 78 65.6445 78 64.1107V47.444C78 45.9102 76.7561 44.6662 75.2222 44.6662ZM72.4444 55.7773H66.8889V50.2218H72.4444V55.7773ZM41.8889 47.444C41.8889 44.3806 44.3811 41.8885 47.4444 41.8885H66.8889V33.5551C66.8889 32.0213 65.645 30.7773 64.1111 30.7773H36.3333C34.7995 30.7773 33.5556 32.0213 33.5556 33.5551V50.2218H41.8889V47.444Z" fill="#06752E"/>
</svg>
