<svg width="47" height="47" viewBox="0 0 47 47" fill="none" xmlns="http://www.w3.org/2000/svg">
<rect x="0.0449219" width="46.19" height="46.19" rx="23.095" fill="#25D366"/>
<path d="M29.8766 16.2719C28.0762 14.4672 25.6785 13.4746 23.1305 13.4746C17.8711 13.4746 13.5914 17.7543 13.5914 23.0137C13.5914 24.6938 14.0297 26.3352 14.8633 27.7832L13.5098 32.7246L18.5672 31.3969C19.9594 32.1574 21.5277 32.557 23.1262 32.557H23.1305C28.3855 32.557 32.7598 28.2773 32.7598 23.018C32.7598 20.4699 31.677 18.0766 29.8766 16.2719ZM23.1305 30.95C21.7039 30.95 20.3074 30.5676 19.0914 29.8457L18.8035 29.6738L15.8043 30.4602L16.6035 27.534L16.4145 27.2332C15.6195 25.9699 15.2027 24.5133 15.2027 23.0137C15.2027 18.6438 18.7605 15.0859 23.1348 15.0859C25.2531 15.0859 27.2426 15.9109 28.7379 17.4105C30.2332 18.9102 31.1527 20.8996 31.1484 23.018C31.1484 27.3922 27.5004 30.95 23.1305 30.95ZM27.4789 25.0117C27.2426 24.8914 26.0695 24.3156 25.8504 24.2383C25.6313 24.1566 25.4723 24.118 25.3133 24.3586C25.1543 24.5992 24.6988 25.132 24.557 25.2953C24.4195 25.4543 24.2777 25.4758 24.0414 25.3555C22.6406 24.6551 21.7211 24.1051 20.7973 22.5195C20.5523 22.0984 21.0422 22.1285 21.4977 21.2176C21.575 21.0586 21.5363 20.9211 21.4762 20.8008C21.416 20.6805 20.9391 19.5074 20.7414 19.0305C20.548 18.5664 20.3504 18.6309 20.2043 18.6223C20.0668 18.6137 19.9078 18.6137 19.7488 18.6137C19.5898 18.6137 19.332 18.6738 19.1129 18.9102C18.8937 19.1508 18.2793 19.7266 18.2793 20.8996C18.2793 22.0727 19.1344 23.207 19.2504 23.366C19.3707 23.525 20.9305 25.9312 23.3238 26.9668C24.8363 27.6199 25.4293 27.6758 26.1855 27.5641C26.6453 27.4953 27.5949 26.9883 27.7926 26.4297C27.9902 25.8711 27.9902 25.3941 27.9301 25.2953C27.8742 25.1879 27.7152 25.1277 27.4789 25.0117Z" fill="white"/>
</svg>
