<svg width="50" height="50" viewBox="0 0 50 50" fill="none" xmlns="http://www.w3.org/2000/svg">
<rect width="50" height="50" rx="8" fill="#F6DDA5"/>
<path d="M35.3625 19.3828C35.8313 21.0234 35.8313 24.5391 35.8313 24.5391C35.8313 24.5391 35.8313 28.0156 35.3625 29.6953C35.1281 30.6328 34.3859 31.3359 33.4875 31.5703C31.8078 32 25.1672 32 25.1672 32C25.1672 32 18.4875 32 16.8078 31.5703C15.9094 31.3359 15.1672 30.6328 14.9328 29.6953C14.4641 28.0156 14.4641 24.5391 14.4641 24.5391C14.4641 24.5391 14.4641 21.0234 14.9328 19.3828C15.1672 18.4453 15.9094 17.7031 16.8078 17.4688C18.4875 17 25.1672 17 25.1672 17C25.1672 17 31.8078 17 33.4875 17.4688C34.3859 17.7031 35.1281 18.4453 35.3625 19.3828ZM22.9797 27.7031L28.5266 24.5391L22.9797 21.375V27.7031Z" fill="#69AF00"/>
</svg>
