<svg width="40" height="40" viewBox="0 0 40 40" fill="none" xmlns="http://www.w3.org/2000/svg">
<g clip-path="url(#clip0_1_1228)">
<g clip-path="url(#clip1_1_1228)">
<g clip-path="url(#clip2_1_1228)">
<path d="M0.319824 0V40H39.6798V0H0.319824ZM14.0798 4.64H17.7598V8.48H14.0798V4.64ZM4.79982 4.64H8.63982V8.48H4.79982V4.64ZM8.47982 13.92V17.76H4.63982V13.92H8.47982ZM7.51982 35.04H5.91982V33.6H7.35982V35.04H7.51982ZM8.63982 27.36H4.79982V23.68H8.63982V27.36ZM16.7998 35.04H15.3598V33.6H16.7998V35.04ZM16.7998 26.08H15.3598V24.64H16.7998V26.08ZM17.9198 17.92H14.0798V14.08H17.9198V17.92ZM26.0798 35.04H24.6398V33.6H26.0798V35.04ZM26.0798 26.08H24.6398V24.64H26.0798V26.08ZM26.0798 16.64H24.6398V15.2H26.0798V16.64ZM27.3598 8.48H23.5198V4.64H27.3598V8.48ZM35.5198 35.04H34.0798V33.6H35.5198V35.04ZM35.5198 26.08H34.0798V24.64H35.5198V26.08ZM35.5198 16.64H34.0798V15.2H35.5198V16.64ZM35.5198 7.36H34.0798V5.92H35.5198V7.36Z" fill="#202944"/>
</g>
</g>
</g>
<defs>
<clipPath id="clip0_1_1228">
<rect width="40" height="40" fill="white"/>
</clipPath>
<clipPath id="clip1_1_1228">
<rect width="40" height="40" fill="white"/>
</clipPath>
<clipPath id="clip2_1_1228">
<rect width="39.36" height="40" fill="white" transform="translate(0.319824)"/>
</clipPath>
</defs>
</svg>
