<svg width="40" height="40" viewBox="0 0 40 40" fill="none" xmlns="http://www.w3.org/2000/svg">
<g clip-path="url(#clip0_1_1183)">
<g clip-path="url(#clip1_1_1183)">
<g clip-path="url(#clip2_1_1183)">
<path d="M25.4877 7.79932H22.7021V12.0054H25.4877V7.79932Z" fill="#1682FE"/>
<path d="M17.493 0H14.7075V4.20613H17.493V0Z" fill="#1682FE"/>
<path d="M9.49889 4.01123H6.71338V8.21736H9.49889V4.01123Z" fill="#60D8A4"/>
<path d="M5.51552 20H2.70215V32.0056H5.51552V20Z" fill="#F4BB3B"/>
<path d="M5.51552 7.99463H2.70215V20.0002H5.51552V7.99463Z" fill="#60D8A4"/>
<path d="M29.4711 11.8105H26.6855V16.0167H29.4711V11.8105Z" fill="#1682FE"/>
<path d="M29.4711 23.9834H26.6855V28.1895H29.4711V23.9834Z" fill="#FF5A5A"/>
<path d="M25.4877 27.9946H22.7021V32.2008H25.4877V27.9946Z" fill="#FF5A5A"/>
<path d="M17.493 35.7939H14.7075V40.0001H17.493V35.7939Z" fill="#FF5A5A"/>
<path d="M9.49889 31.7827H6.71338V35.9888H9.49889V31.7827Z" fill="#F4BB3B"/>
<path d="M37.298 15.9889V7.99443H33.2869V4.01114H25.2925V0H17.2981V4.01114H9.30362V8.02228H5.29248V32.0056H9.30362V36.0167H17.2981V40.0279H25.2925V36.0167H33.2869V32.0056H37.298V23.9833H29.3036V27.9944H25.2925V32.0056H17.2981V27.9944H13.3148V12.0056H17.3259V7.99443H25.3203V12.0056H29.3315V16.0167H37.298V15.9889Z" fill="#3A3A3A"/>
</g>
</g>
</g>
<defs>
<clipPath id="clip0_1_1183">
<rect width="40" height="40" fill="white"/>
</clipPath>
<clipPath id="clip1_1_1183">
<rect width="40" height="40" fill="white"/>
</clipPath>
<clipPath id="clip2_1_1183">
<rect width="34.5961" height="40" fill="white" transform="translate(2.70215)"/>
</clipPath>
</defs>
</svg>
