<svg width="21" height="8" viewBox="0 0 21 8" fill="none" xmlns="http://www.w3.org/2000/svg">
<path d="M0.875927 7.94971V6.84175L3.46471 4.44474C3.68488 4.23167 3.86953 4.03991 4.01868 3.86945C4.1702 3.699 4.28502 3.53209 4.36314 3.36874C4.44127 3.20302 4.48033 3.02428 4.48033 2.83252C4.48033 2.61945 4.4318 2.43598 4.33473 2.28209C4.23767 2.12584 4.10509 2.00629 3.93701 1.92343C3.76892 1.8382 3.57834 1.79559 3.36527 1.79559C3.14274 1.79559 2.94861 1.84057 2.78289 1.93053C2.61717 2.02049 2.48933 2.14952 2.39936 2.3176C2.3094 2.48569 2.26442 2.68574 2.26442 2.91775H0.804904C0.804904 2.44189 0.912622 2.02878 1.12806 1.6784C1.34349 1.32802 1.64534 1.05695 2.0336 0.86519C2.42185 0.673428 2.8693 0.577548 3.37593 0.577548C3.89676 0.577548 4.35012 0.669877 4.73601 0.854536C5.12427 1.03683 5.42612 1.29014 5.64155 1.61448C5.85699 1.93882 5.96471 2.3105 5.96471 2.72954C5.96471 3.00416 5.91025 3.27523 5.80135 3.54275C5.69482 3.81027 5.50424 4.10738 5.22962 4.43408C4.955 4.75842 4.56792 5.14786 4.0684 5.60241L3.00661 6.64289V6.6926H6.06059V7.94971H0.875927ZM6.90842 6.6713V5.46036L9.94464 0.67698H10.9887V2.35312H10.3708L8.45672 5.38224V5.43905H12.7713V6.6713H6.90842ZM10.3992 7.94971V6.30198L10.4276 5.76576V0.67698H11.8694V7.94971H10.3992ZM13.8385 7.94971V0.67698H15.3761V3.67769H18.4976V0.67698H20.0316V7.94971H18.4976V4.94545H15.3761V7.94971H13.8385Z" fill="#FFFCFC" fill-opacity="0.98"/>
</svg>
