<svg width="300" height="48" viewBox="0 0 300 48" fill="none" xmlns="http://www.w3.org/2000/svg">
<path fill-rule="evenodd" clip-rule="evenodd" d="M26.1941 1.62089L31.396 12.7641C31.5932 13.1867 31.8847 13.5523 32.2454 13.8293C32.6061 14.1063 33.0251 14.2864 33.4663 14.354L45.0988 16.1409C47.3538 16.4877 48.2547 19.418 46.623 21.1L38.2059 29.774C37.8866 30.103 37.6478 30.5092 37.51 30.9575C37.3722 31.4057 37.3395 31.8827 37.4148 32.3473L39.4021 44.5952C39.7871 46.9697 37.4295 48.7807 35.4121 47.6597L25.0076 41.8773C24.6129 41.6582 24.1737 41.5437 23.7279 41.5437C23.2821 41.5437 22.8429 41.6582 22.4482 41.8773L12.0446 47.6597C10.0271 48.7807 7.66956 46.9697 8.05449 44.5952L10.0418 32.3473C10.1172 31.8827 10.0846 31.4057 9.94683 30.9574C9.80903 30.5091 9.57014 30.1029 9.25078 29.774L0.833628 21.1C-0.798859 19.418 0.102017 16.4877 2.35788 16.1409L13.9904 14.354C14.4315 14.2863 14.8505 14.1062 15.2112 13.8292C15.5718 13.5523 15.8634 13.1867 16.0607 12.7641L21.2625 1.62089C22.2716 -0.540297 25.1858 -0.540297 26.1941 1.62089ZM89.3305 1.62089L94.5323 12.7641C94.7296 13.1867 95.0211 13.5523 95.3818 13.8293C95.7425 14.1063 96.1615 14.2864 96.6027 14.354L108.235 16.1409C110.49 16.4877 111.391 19.418 109.759 21.1L101.342 29.774C101.023 30.103 100.784 30.5092 100.646 30.9575C100.509 31.4057 100.476 31.8827 100.551 32.3473L102.539 44.5952C102.923 46.9697 100.566 48.7807 98.5485 47.6597L88.144 41.8773C87.7493 41.6582 87.3101 41.5437 86.8643 41.5437C86.4185 41.5437 85.9793 41.6582 85.5846 41.8773L75.1801 47.6597C73.1627 48.7807 70.8051 46.9697 71.1901 44.5952L73.1774 32.3473C73.2527 31.8827 73.22 31.4057 73.0822 30.9575C72.9444 30.5092 72.7056 30.103 72.3864 29.774L63.9692 21.1C62.3375 19.418 63.2376 16.4877 65.4935 16.1409L77.1259 14.354C77.5671 14.2863 77.9861 14.1062 78.3467 13.8292C78.7074 13.5523 78.999 13.1867 79.1963 12.7641L84.3981 1.62089C85.4072 -0.540297 88.3214 -0.540297 89.3305 1.62089ZM152.466 1.62089L157.669 12.7641C157.866 13.1867 158.158 13.5523 158.518 13.8293C158.879 14.1063 159.298 14.2864 159.739 14.354L171.372 16.1409C173.627 16.4877 174.527 19.418 172.896 21.1L164.479 29.774C164.159 30.103 163.921 30.5092 163.783 30.9575C163.645 31.4057 163.612 31.8827 163.688 32.3473L165.675 44.5952C166.06 46.9697 163.702 48.7807 161.685 47.6597L151.28 41.8773C150.886 41.6582 150.447 41.5437 150.001 41.5437C149.555 41.5437 149.116 41.6582 148.721 41.8773L138.317 47.6597C136.299 48.7807 133.942 46.9697 134.326 44.5952L136.314 32.3473C136.389 31.8827 136.357 31.4057 136.219 30.9574C136.081 30.5091 135.842 30.1029 135.523 29.774L127.106 21.1C125.473 19.418 126.374 16.4877 128.63 16.1409L140.262 14.354C140.703 14.2863 141.122 14.1062 141.483 13.8292C141.844 13.5523 142.135 13.1867 142.333 12.7641L147.534 1.62089C148.543 -0.540297 151.458 -0.540297 152.466 1.62089ZM215.602 1.62089L220.803 12.7641C221.001 13.1867 221.292 13.5523 221.653 13.8293C222.014 14.1063 222.433 14.2864 222.874 14.354L234.506 16.1409C236.761 16.4877 237.662 19.418 236.031 21.1L227.613 29.774C227.294 30.103 227.055 30.5092 226.918 30.9575C226.78 31.4057 226.747 31.8827 226.822 32.3473L228.81 44.5952C229.195 46.9697 226.837 48.7807 224.82 47.6597L214.415 41.8773C214.02 41.6582 213.581 41.5437 213.135 41.5437C212.69 41.5437 212.25 41.6582 211.856 41.8773L201.451 47.6597C199.434 48.7807 197.076 46.9697 197.461 44.5952L199.449 32.3473C199.524 31.8827 199.491 31.4057 199.353 30.9575C199.216 30.5092 198.977 30.103 198.657 29.774L190.24 21.1C188.608 19.418 189.509 16.4877 191.765 16.1409L203.397 14.354C203.838 14.2863 204.257 14.1062 204.618 13.8292C204.979 13.5523 205.27 13.1867 205.467 12.7641L210.669 1.62089C211.679 -0.540297 214.593 -0.540297 215.602 1.62089ZM278.738 1.62089L283.94 12.7641C284.137 13.1867 284.429 13.5523 284.789 13.8293C285.15 14.1063 285.569 14.2864 286.01 14.354L297.643 16.1409C299.898 16.4877 300.799 19.418 299.167 21.1L290.75 29.774C290.431 30.103 290.192 30.5092 290.054 30.9575C289.916 31.4057 289.883 31.8827 289.959 32.3473L291.946 44.5952C292.331 46.9697 289.973 48.7807 287.956 47.6597L277.552 41.8773C277.157 41.6582 276.718 41.5437 276.272 41.5437C275.826 41.5437 275.387 41.6582 274.992 41.8773L264.588 47.6597C262.57 48.7807 260.213 46.9697 260.598 44.5952L262.585 32.3473C262.66 31.8827 262.628 31.4057 262.49 30.9575C262.352 30.5092 262.113 30.103 261.794 29.774L253.377 21.1C251.745 19.418 252.645 16.4877 254.901 16.1409L266.533 14.354C266.975 14.2863 267.394 14.1062 267.754 13.8292C268.115 13.5523 268.407 13.1867 268.604 12.7641L273.806 1.62089C274.815 -0.540297 277.729 -0.540297 278.738 1.62089Z" fill="#FFB810"/>
</svg>
